<svg width="304" height="304" viewBox="0 0 304 304" fill="none" xmlns="http://www.w3.org/2000/svg">
<g filter="url(#filter0_d_147_59)">
<g clip-path="url(#clip0_147_59)">
<path d="M18.2367 33.6062C18.2367 24.8274 25.3533 17.7108 34.132 17.7108H270.443C279.222 17.7108 286.339 24.8275 286.339 33.6062V285.813H34.132C25.3532 285.813 18.2367 278.696 18.2367 269.918V33.6062Z" fill="white" style="fill:white;fill-opacity:1;"/>
<g opacity="0.1">
<path d="M276.949 256.728C291.634 256.728 305.115 256.594 318.584 256.817C322.799 256.884 323.412 259.95 322.732 263.619C319.131 283.098 309.798 299.299 295.436 312.858C285.746 321.85 274.185 328.586 261.584 332.583C259.509 333.363 257.231 333.422 255.117 332.75C236.793 327.097 220.755 315.736 209.343 300.325C197.932 284.914 191.744 266.259 191.684 247.083C191.684 240.393 191.762 233.703 191.684 227.012C191.684 222.642 193.311 220.612 197.95 220.657C214.475 220.791 230.995 220.791 247.513 220.657C251.036 220.657 252.363 221.66 252.385 225.384C252.475 236.758 245.249 244.808 233.809 245.455C229.929 245.667 226.004 245.622 222.124 245.566C218.5 245.566 217.909 247.239 219.358 250.105C220.295 252.147 221.816 253.866 223.729 255.045C225.642 256.223 227.862 256.809 230.107 256.728C235.303 256.728 240.499 256.728 245.717 256.728C261.573 256.549 271.742 263.875 276.392 278.917C276.659 279.798 276.871 280.712 277.206 281.57C278.321 284.469 280.551 285.317 283.461 284.915C286.739 284.469 287.776 282.15 287.653 279.34C287.408 273.397 284.754 268.279 281.599 263.407C280.361 261.478 279.034 259.705 276.949 256.728Z" fill="#27AE60" style="fill:#27AE60;fill:color(display-p3 0.1529 0.6824 0.3765);fill-opacity:1;"/>
<path d="M263.692 212.417C263.692 203.697 263.781 194.967 263.692 186.247C263.625 181.386 265.922 179.557 270.56 180.003C274.619 180.416 278.689 180.728 282.747 181.118C286.806 181.508 288.612 183.816 288.601 187.808C288.601 204.905 288.601 221.98 288.601 239.032C288.601 243.648 286.449 245.812 281.688 245.533C277.808 245.299 273.883 245.366 270.003 245.533C265.543 245.678 263.602 243.615 263.658 239.177C263.759 230.257 263.658 221.337 263.658 212.417H263.692Z" fill="#27AE60" style="fill:#27AE60;fill:color(display-p3 0.1529 0.6824 0.3765);fill-opacity:1;"/>
<path d="M324.46 217.524C324.46 224.013 324.46 230.514 324.46 237.014C324.46 244.552 323.557 245.444 316.254 245.455C312.541 245.455 308.828 245.455 305.104 245.455C301.379 245.455 299.718 243.871 299.74 240.036C299.83 223.682 299.83 207.328 299.74 190.975C299.74 186.147 301.892 184.619 306.341 185.522L306.888 185.645C324.438 189.146 324.438 189.146 324.438 206.931V217.524H324.46Z" fill="#27AE60" style="fill:#27AE60;fill:color(display-p3 0.1529 0.6824 0.3765);fill-opacity:1;"/>
<path d="M252.263 194.978C252.441 210.967 253.378 209.25 237.935 209.339C227.766 209.339 227.699 209.272 227.587 199.181C227.531 198.439 227.531 197.694 227.587 196.951C228.223 192.112 225.246 185.678 229.695 182.746C234.846 179.334 241.826 180.092 248.126 180.114C250.746 180.114 252.218 181.742 252.252 184.396C252.296 187.931 252.263 191.454 252.263 194.978Z" fill="#27AE60" style="fill:#27AE60;fill:color(display-p3 0.1529 0.6824 0.3765);fill-opacity:1;"/>
<path d="M204.06 209.44C191.171 209.44 191.327 209.44 191.617 196.461C191.706 192.201 193.367 189.983 197.359 188.979C201.351 187.976 205.51 186.537 209.624 185.534C213.973 184.419 216.437 186.169 216.426 190.863C216.426 194.565 216.426 198.267 216.426 202.014C216.348 208.47 215.311 209.462 209.067 209.495L204.06 209.44Z" fill="#27AE60" style="fill:#27AE60;fill:color(display-p3 0.1529 0.6824 0.3765);fill-opacity:1;"/>
</g>
</g>
</g>
<defs>
<filter id="filter0_d_147_59" x="0.962307" y="0.436489" width="302.651" height="302.651" filterUnits="userSpaceOnUse" color-interpolation-filters="sRGB">
<feFlood flood-opacity="0" result="BackgroundImageFix"/>
<feColorMatrix in="SourceAlpha" type="matrix" values="0 0 0 0 0 0 0 0 0 0 0 0 0 0 0 0 0 0 127 0" result="hardAlpha"/>
<feOffset/>
<feGaussianBlur stdDeviation="8.63718"/>
<feComposite in2="hardAlpha" operator="out"/>
<feColorMatrix type="matrix" values="0 0 0 0 0 0 0 0 0 0 0 0 0 0 0 0 0 0 0.15 0"/>
<feBlend mode="normal" in2="BackgroundImageFix" result="effect1_dropShadow_147_59"/>
<feBlend mode="normal" in="SourceGraphic" in2="effect1_dropShadow_147_59" result="shape"/>
</filter>
<clipPath id="clip0_147_59">
<path d="M18.2367 33.6062C18.2367 24.8274 25.3533 17.7108 34.132 17.7108H270.443C279.222 17.7108 286.339 24.8275 286.339 33.6062V285.813H34.132C25.3532 285.813 18.2367 278.696 18.2367 269.918V33.6062Z" fill="white" style="fill:white;fill-opacity:1;"/>
</clipPath>
</defs>
</svg>
