<svg width="836" height="1081" viewBox="0 0 836 1081" fill="none" xmlns="http://www.w3.org/2000/svg">
<g clip-path="url(#clip0_533_519)">
<rect width="836" height="1080" transform="translate(0 0.568359)" fill="#27AE60" style="fill:#27AE60;fill:color(display-p3 0.1529 0.6824 0.3765);fill-opacity:1;"/>
<path d="M734.12 584.704L718.9 594.414L716.146 606.878L697.449 602.746C690.282 601.162 684.355 606.389 682.23 612.456L662.224 673.4C660.099 679.467 662.835 686.608 671.934 688.619L771.649 710.657C780.748 712.668 786.239 707.345 786.868 700.948L794.41 637.248C795.039 630.851 791.306 623.489 784.7 622.029L766.003 617.897L768.758 605.433L759.048 590.213L734.12 584.704ZM731.365 597.168L756.294 602.678L753.539 615.142L728.61 609.633L731.365 597.168ZM730.71 629.707L743.175 632.461L739.043 651.158L757.739 655.29L754.984 667.755L736.288 663.622L732.156 682.319L719.691 679.564L723.823 660.868L705.127 656.736L707.882 644.271L726.578 648.403L730.71 629.707Z" fill="#1D8E4D" style="fill:#1D8E4D;fill:color(display-p3 0.1140 0.5583 0.3016);fill-opacity:1;"/>
<path d="M69.1553 291.359L84.9443 290.354L92.3365 281.957L104.932 293.045C109.76 297.296 116.521 295.796 120.721 292.041L161.88 253.753C166.08 249.998 167.005 243.36 160.876 237.964L93.7008 178.826C87.5711 173.43 81.104 175.189 77.9117 179.831L45.1492 225.511C41.9569 230.153 41.7035 237.382 46.1538 241.3L58.7491 252.388L51.3569 260.785L52.3616 276.574L69.1553 291.359ZM76.5475 282.962L59.7538 268.177L67.146 259.78L83.9397 274.565L76.5475 282.962ZM90.8295 258.274L82.4327 250.881L93.521 238.286L80.9257 227.198L88.3179 218.801L100.913 229.889L112.001 217.294L120.398 224.686L109.31 237.281L121.905 248.37L114.513 256.767L101.918 245.678L90.8295 258.274Z" fill="#1D8E4D" style="fill:#1D8E4D;fill:color(display-p3 0.1140 0.5583 0.3016);fill-opacity:1;"/>
<path d="M633.212 173.445L652.832 175.292L663.566 166.405L676.896 182.506C682.006 188.678 690.616 188.152 696.517 184.353L754.628 145.286C760.528 141.487 762.963 133.502 756.475 125.666L685.382 39.7967C678.895 31.9611 670.595 32.8623 665.762 37.9497L616.536 87.7499C611.703 92.8372 609.98 101.681 614.689 107.37L628.019 123.471L617.286 132.357L615.439 151.978L633.212 173.445ZM643.946 164.558L626.172 143.091L636.906 134.204L654.679 155.672L643.946 164.558ZM666.337 136.975L657.45 126.241L673.551 112.911L660.221 96.8107L670.954 87.9241L684.284 104.025L700.385 90.6946L709.271 101.428L693.171 114.758L706.501 130.859L695.767 139.745L682.437 123.645L666.337 136.975Z" fill="#1D8E4D" style="fill:#1D8E4D;fill:color(display-p3 0.1140 0.5583 0.3016);fill-opacity:1;"/>
<path d="M409.354 385.96L397.429 394.917L395.946 405.358L380.285 403.134C374.281 402.281 369.729 406.96 368.361 412.091L355.724 463.554C354.356 468.686 357.06 474.396 364.682 475.478L448.209 487.344C455.831 488.427 460.018 483.696 460.133 478.387L462.329 425.44C462.444 420.131 458.905 414.302 453.371 413.516L437.71 411.291L439.193 400.85L430.235 388.926L409.354 385.96ZM407.87 396.401L428.752 399.367L427.269 409.808L406.387 406.842L407.87 396.401ZM409.383 423.245L419.824 424.728L417.599 440.389L433.26 442.614L431.777 453.055L416.116 450.83L413.891 466.492L403.45 465.008L405.675 449.347L390.013 447.122L391.497 436.681L407.158 438.906L409.383 423.245Z" fill="#1D8E4D" style="fill:#1D8E4D;fill:color(display-p3 0.1140 0.5583 0.3016);fill-opacity:1;"/>
<path d="M102.962 594.667L94.9447 608.33L97.7676 619.17L81.5074 623.405C75.2743 625.028 72.7291 631.478 73.4902 637.068L82.1847 692.68C82.9458 698.269 87.9345 702.758 95.8478 700.697L182.569 678.114C190.482 676.053 192.648 669.702 190.586 664.451L171.051 611.662C168.99 606.411 163.134 602.148 157.388 603.644L141.128 607.879L138.305 597.039L124.642 589.021L102.962 594.667ZM105.785 605.507L127.465 599.862L130.288 610.702L108.608 616.348L105.785 605.507ZM118.262 631.196L129.102 628.373L133.337 644.634L149.597 640.399L152.42 651.239L136.16 655.474L140.394 671.734L129.554 674.557L125.319 658.297L109.059 662.531L106.236 651.691L122.497 647.457L118.262 631.196Z" fill="#1D8E4D" style="fill:#1D8E4D;fill:color(display-p3 0.1140 0.5583 0.3016);fill-opacity:1;"/>
<path d="M150.441 65.7227C153.72 66.9022 156.735 68.7161 159.313 71.0608C161.891 73.4054 163.982 76.235 165.466 79.3878C166.951 82.5406 167.8 85.9549 167.964 89.4358C168.129 92.9167 167.607 96.3959 166.427 99.6749C165.247 102.954 163.433 105.969 161.089 108.547C158.744 111.125 155.915 113.216 152.762 114.7C149.609 116.185 146.195 117.033 142.714 117.198C139.233 117.363 135.754 116.84 132.475 115.661L103.434 105.213L103.449 105.172L80.1946 96.8052C76.9155 95.6257 73.9008 93.8118 71.3228 91.4671C68.7447 89.1225 66.6538 86.2929 65.1694 83.1401C63.6849 79.9873 62.8361 76.573 62.6713 73.0921C62.5065 69.6112 63.0289 66.132 64.2089 62.853C65.3884 59.5739 67.2023 56.5593 69.5469 53.9812C71.8916 51.4032 74.7211 49.3123 77.8739 47.8278C81.0267 46.3434 84.4411 45.4945 87.922 45.3297C91.4028 45.1649 94.8821 45.6874 98.161 46.8673L127.204 57.3141L127.19 57.355L150.441 65.7227ZM105.529 99.3828L119.332 61.0169L96.0781 52.6505C93.559 51.7438 90.8859 51.3423 88.2116 51.4688C85.5373 51.5954 82.9141 52.2475 80.4918 53.388C78.0695 54.5284 75.8957 56.1349 74.0944 58.1156C72.2931 60.0964 70.8996 62.4125 69.9935 64.9319C69.0869 67.451 68.6853 70.1241 68.8119 72.7984C68.9384 75.4727 69.5905 78.0959 70.731 80.5182C71.8715 82.9404 73.4779 85.1143 75.4587 86.9156C77.4394 88.7169 79.7556 90.1104 82.2749 91.0164L105.529 99.3828ZM147.738 106.7C149.213 106.005 150.353 104.753 150.905 103.218C151.457 101.683 151.377 99.992 150.682 98.5163C149.987 97.0406 148.735 95.9014 147.2 95.3492C145.665 94.797 143.974 94.8771 142.498 95.5719C141.022 96.2667 139.883 97.5193 139.331 99.0541C138.779 100.589 138.859 102.28 139.554 103.756C140.249 105.231 141.501 106.371 143.036 106.923C144.571 107.475 146.262 107.395 147.738 106.7Z" fill="#1D8E4D" style="fill:#1D8E4D;fill:color(display-p3 0.1140 0.5583 0.3016);fill-opacity:1;"/>
<path d="M287.278 263.388C286.001 259.932 285.419 256.259 285.562 252.578C285.706 248.896 286.574 245.28 288.115 241.934C289.657 238.588 291.843 235.578 294.547 233.077C297.252 230.575 300.423 228.632 303.879 227.356C307.335 226.08 311.009 225.497 314.69 225.641C318.371 225.784 321.988 226.652 325.334 228.194C328.68 229.735 331.69 231.921 334.191 234.626C336.692 237.331 338.636 240.502 339.912 243.958L351.211 274.566L351.168 274.582L360.217 299.092C361.493 302.548 362.075 306.222 361.932 309.903C361.788 313.584 360.921 317.201 359.379 320.547C357.837 323.893 355.652 326.903 352.947 329.404C350.242 331.905 347.071 333.849 343.615 335.125C340.159 336.401 336.485 336.984 332.804 336.84C329.123 336.696 325.506 335.829 322.16 334.287C318.814 332.746 315.804 330.56 313.303 327.855C310.802 325.15 308.858 321.979 307.582 318.523L296.28 287.913L296.323 287.897L287.278 263.388ZM345.069 276.836L304.631 291.765L313.679 316.275C314.659 318.93 316.152 321.366 318.074 323.445C319.996 325.523 322.308 327.202 324.879 328.386C327.449 329.571 330.228 330.237 333.056 330.348C335.885 330.458 338.707 330.01 341.362 329.029C344.017 328.05 346.454 326.556 348.532 324.635C350.61 322.713 352.289 320.401 353.474 317.83C354.658 315.259 355.325 312.481 355.435 309.652C355.545 306.824 355.097 304.002 354.117 301.347L345.069 276.836ZM322.278 237.701C320.712 236.98 318.923 236.91 317.306 237.507C315.688 238.104 314.374 239.32 313.652 240.886C312.931 242.452 312.861 244.24 313.458 245.858C314.055 247.476 315.27 248.79 316.837 249.511C318.403 250.233 320.191 250.303 321.809 249.706C323.427 249.109 324.741 247.893 325.462 246.327C326.184 244.761 326.254 242.972 325.657 241.355C325.059 239.737 323.844 238.423 322.278 237.701Z" fill="#1D8E4D" style="fill:#1D8E4D;fill:color(display-p3 0.1140 0.5583 0.3016);fill-opacity:1;"/>
<path d="M535.565 86.7302C538.641 86.3725 541.758 86.6244 544.737 87.4714C547.717 88.3184 550.5 89.744 552.928 91.6667C555.357 93.5895 557.382 95.9717 558.89 98.6774C560.398 101.383 561.357 104.359 561.715 107.436C562.072 110.513 561.82 113.629 560.973 116.609C560.126 119.588 558.701 122.371 556.778 124.8C554.855 127.228 552.473 129.254 549.767 130.761C547.062 132.269 544.086 133.229 541.009 133.586L513.761 136.752L513.756 136.714L491.937 139.249C488.861 139.607 485.744 139.355 482.764 138.508C479.785 137.661 477.002 136.235 474.573 134.312C472.145 132.39 470.119 130.007 468.612 127.302C467.104 124.596 466.144 121.62 465.787 118.543C465.429 115.466 465.681 112.35 466.528 109.37C467.375 106.391 468.801 103.608 470.724 101.179C472.646 98.7511 475.029 96.7253 477.734 95.2178C480.44 93.7102 483.416 92.7503 486.493 92.3931L513.743 89.2249L513.747 89.2633L535.565 86.7302ZM513.123 131.283L508.941 95.285L487.122 97.8202C484.758 98.0946 482.471 98.8319 480.392 99.9901C478.314 101.148 476.483 102.705 475.006 104.57C473.529 106.436 472.434 108.574 471.783 110.863C471.132 113.152 470.939 115.547 471.214 117.911C471.488 120.274 472.226 122.561 473.384 124.64C474.542 126.719 476.098 128.549 477.964 130.026C479.829 131.503 481.968 132.598 484.257 133.249C486.546 133.9 488.941 134.093 491.304 133.818L513.123 131.283ZM549.616 120.418C550.515 119.282 550.927 117.834 550.76 116.394C550.592 114.954 549.86 113.639 548.723 112.739C547.587 111.839 546.139 111.428 544.699 111.595C543.259 111.762 541.944 112.495 541.045 113.632C540.145 114.768 539.733 116.216 539.9 117.656C540.068 119.096 540.8 120.41 541.937 121.31C543.073 122.21 544.521 122.622 545.961 122.455C547.401 122.287 548.716 121.555 549.616 120.418Z" fill="#1D8E4D" style="fill:#1D8E4D;fill:color(display-p3 0.1140 0.5583 0.3016);fill-opacity:1;"/>
<path d="M626.675 413.02C628.967 410.727 631.689 408.908 634.684 407.667C637.679 406.427 640.89 405.788 644.132 405.788C647.374 405.788 650.584 406.427 653.579 407.667C656.575 408.908 659.296 410.727 661.589 413.02C663.881 415.312 665.7 418.033 666.941 421.029C668.181 424.024 668.82 427.234 668.82 430.476C668.82 433.718 668.181 436.929 666.941 439.924C665.7 442.919 663.881 445.641 661.589 447.933L641.285 468.236L641.257 468.208L624.999 484.466C622.706 486.759 619.985 488.577 616.989 489.818C613.994 491.059 610.784 491.697 607.542 491.697C604.3 491.697 601.089 491.059 598.094 489.818C595.099 488.577 592.377 486.759 590.085 484.466C587.792 482.174 585.974 479.452 584.733 476.457C583.492 473.462 582.854 470.251 582.854 467.009C582.854 463.767 583.492 460.557 584.733 457.561C585.974 454.566 587.792 451.845 590.085 449.552L610.388 429.246L610.417 429.275L626.675 413.02ZM637.209 464.163L610.385 437.339L594.127 453.598C592.366 455.359 590.968 457.449 590.015 459.751C589.062 462.052 588.571 464.518 588.571 467.009C588.571 469.5 589.062 471.966 590.015 474.268C590.968 476.569 592.366 478.66 594.127 480.421C595.888 482.182 597.979 483.58 600.28 484.533C602.582 485.486 605.048 485.977 607.539 485.977C610.03 485.977 612.496 485.486 614.797 484.533C617.099 483.58 619.189 482.182 620.95 480.421L637.209 464.163ZM660.095 431.535C660.095 430.017 659.492 428.562 658.419 427.489C657.346 426.416 655.891 425.813 654.374 425.813C652.856 425.813 651.401 426.416 650.328 427.489C649.255 428.562 648.652 430.017 648.652 431.535C648.652 433.052 649.255 434.508 650.328 435.581C651.401 436.654 652.856 437.256 654.374 437.256C655.891 437.256 657.346 436.654 658.419 435.581C659.492 434.508 660.095 433.052 660.095 431.535Z" fill="#1D8E4D" style="fill:#1D8E4D;fill:color(display-p3 0.1140 0.5583 0.3016);fill-opacity:1;"/>
<path d="M734.394 284.173L808.091 265.982M742.034 315.126L815.731 296.935M749.492 345.342L784.867 336.61M740.381 391.049L852.522 363.369C861.07 361.259 866.288 352.619 864.179 344.072L836.498 231.931C834.388 223.384 825.749 218.165 817.201 220.275L705.06 247.955C696.513 250.065 691.294 258.704 693.404 267.252L721.085 379.393C723.195 387.94 731.834 393.159 740.381 391.049Z" stroke="#1D8E4D" style="stroke:#1D8E4D;stroke:color(display-p3 0.1140 0.5583 0.3016);stroke-opacity:1;" stroke-width="9.86817" stroke-linecap="round"/>
<path d="M533.514 263.518L589.475 279.685M526.723 287.022L582.685 303.189M520.095 309.967L546.956 317.727M496.513 336.855L581.667 361.455C588.157 363.33 594.939 359.589 596.814 353.098L621.414 267.944C623.289 261.454 619.548 254.672 613.057 252.797L527.903 228.197C521.413 226.322 514.631 230.063 512.756 236.554L488.156 321.708C486.281 328.198 490.022 334.98 496.513 336.855Z" stroke="#1D8E4D" style="stroke:#1D8E4D;stroke:color(display-p3 0.1140 0.5583 0.3016);stroke-opacity:1;" stroke-width="9.86817" stroke-linecap="round"/>
<path d="M305.792 64.0718L356.501 78.7213M299.639 85.3695L350.348 100.019M293.633 106.16L317.973 113.192M272.264 130.524L349.425 152.816C355.307 154.515 361.452 151.124 363.151 145.243L385.442 68.0822C387.141 62.201 383.751 56.056 377.869 54.357L300.708 32.0656C294.827 30.3666 288.682 33.7569 286.983 39.6381L264.692 116.799C262.993 122.68 266.383 128.825 272.264 130.524Z" stroke="#1D8E4D" style="stroke:#1D8E4D;stroke:color(display-p3 0.1140 0.5583 0.3016);stroke-opacity:1;" stroke-width="8.9419" stroke-linecap="round"/>
<path d="M163.938 417.685L206.293 442.929M153.336 435.474L195.691 460.718M142.986 452.84L163.316 464.957M117.907 469.798L182.357 508.21C187.269 511.138 193.625 509.529 196.552 504.616L234.965 440.167C237.892 435.255 236.284 428.899 231.371 425.971L166.922 387.559C162.01 384.631 155.654 386.24 152.726 391.152L114.314 455.602C111.386 460.514 112.995 466.87 117.907 469.798Z" stroke="#1D8E4D" style="stroke:#1D8E4D;stroke:color(display-p3 0.1140 0.5583 0.3016);stroke-opacity:1;" stroke-width="9.86817" stroke-linecap="round"/>
<path d="M372.927 665.086C372.927 665.086 372.186 607.998 375.742 616.302C389.523 648.627 418.714 629.35 431.013 676.949C439.755 710.905 416.343 739.819 453.091 756.279C489.098 772.441 492.506 840.799 431.309 856.22C370.26 871.789 301.801 862.744 301.801 862.744L221.341 848.064C221.341 848.064 149.919 863.634 118.357 836.647C86.7951 809.511 93.3149 752.572 134.36 740.857C163.551 732.554 154.364 700.822 153.623 679.914C152.882 658.858 155.55 638.099 188.89 618.526C219.563 600.88 372.927 665.086 372.927 665.086Z" fill="#111111" style="fill:#111111;fill:color(display-p3 0.0667 0.0667 0.0667);fill-opacity:1;"/>
<path d="M341.958 645.366C341.958 645.366 333.956 664.642 349.07 672.205C364.777 680.064 364.925 690.443 362.406 717.727C360.035 744.862 385.967 742.193 405.822 758.059C425.678 773.925 433.532 840.206 393.82 851.328C393.82 851.328 314.841 879.797 270.536 861.559C226.082 843.32 202.078 868.083 173.924 844.358C139.398 815.147 140.584 762.359 170.516 746.345C198.67 731.22 186.815 725.289 185.926 705.123C185.037 684.957 201.189 680.805 209.783 675.763C218.229 670.722 223.712 656.487 223.86 648.776C223.86 640.769 341.958 645.366 341.958 645.366Z" fill="#111111" style="fill:#111111;fill:color(display-p3 0.0667 0.0667 0.0667);fill-opacity:1;"/>
<path d="M410.861 776.742C393.228 761.321 331.289 746.048 317.212 738.337C303.284 730.478 305.951 683.474 305.951 683.474L277.352 683.325L248.902 682.436C248.902 682.436 249.939 729.589 235.714 736.854C221.489 744.12 158.958 757.169 140.88 771.997C122.655 786.825 139.991 880.39 139.991 880.39L234.233 881.131L274.389 867.193L313.952 882.466L408.194 884.987C408.045 885.283 428.494 792.163 410.861 776.742Z" fill="#FABCA3" style="fill:#FABCA3;fill:color(display-p3 0.9804 0.7373 0.6392);fill-opacity:1;"/>
<path d="M368.926 758.799L317.212 738.336L280.167 832.198L238.085 737.002L175.554 756.278L179.406 1080.42H383.744L368.926 758.799Z" fill="#38BCA4" style="fill:#38BCA4;fill:color(display-p3 0.2182 0.7375 0.6440);fill-opacity:1;"/>
<path d="M504.213 729.588L468.354 819.742L423.308 933.177L406.86 974.696L329.808 922.353L385.523 797.649C393.228 780.3 407.453 766.806 425.234 759.985L458.871 747.085L504.213 729.588Z" fill="#EAF0F9" style="fill:#EAF0F9;fill:color(display-p3 0.9176 0.9412 0.9765);fill-opacity:1;"/>
<path d="M596.973 727.957L632.832 818.112L677.878 931.546L694.326 973.065L771.378 920.722L715.663 796.018C707.958 778.669 693.733 765.175 675.951 758.355L642.315 745.454L596.973 727.957Z" fill="#EAF0F9" style="fill:#EAF0F9;fill:color(display-p3 0.9176 0.9412 0.9765);fill-opacity:1;"/>
<path d="M329.807 922.354L299.283 989.821C289.947 1010.43 294.096 1034.6 309.655 1050.91L337.809 1080.42H441.978L389.375 1009.39L407.008 974.697L329.807 922.354Z" fill="#FABCA3" style="fill:#FABCA3;fill:color(display-p3 0.9804 0.7373 0.6392);fill-opacity:1;"/>
<path d="M608.53 1080.42L596.972 727.957L504.212 729.588L489.543 1080.42H608.53Z" fill="#38BCA4" style="fill:#38BCA4;fill:color(display-p3 0.2182 0.7375 0.6440);fill-opacity:1;"/>
<path d="M465.834 814.553C442.867 862.744 423.9 898.628 423.9 898.628C423.9 898.628 423.752 913.011 423.307 933.325C422.418 972.916 420.64 1035.19 416.936 1056.1C416.195 1060.4 414.416 1069 411.897 1080.57H501.397C505.991 1022.59 509.399 961.795 510.436 903.076C511.621 841.095 509.991 781.486 504.212 729.588C491.913 758.947 478.281 788.455 465.834 814.553Z" fill="#EAF0F9" style="fill:#EAF0F9;fill:color(display-p3 0.9176 0.9412 0.9765);fill-opacity:1;"/>
<path d="M684.249 1054.32C680.544 1033.41 678.766 971.285 677.877 931.546C677.433 911.232 677.285 896.848 677.285 896.848C677.285 896.848 658.318 860.965 635.35 812.773C622.903 786.824 609.271 757.168 596.972 727.809C591.193 779.559 589.711 839.316 590.749 901.297C591.786 960.609 595.194 1022 599.787 1080.27H689.583C686.916 1068.11 684.99 1058.92 684.249 1054.32Z" fill="#EAF0F9" style="fill:#EAF0F9;fill:color(display-p3 0.9176 0.9412 0.9765);fill-opacity:1;"/>
<path d="M510.437 902.928L468.354 819.594L465.687 814.404L481.542 770.81L458.723 746.937L504.213 729.439C509.992 781.338 511.622 840.946 510.437 902.928Z" fill="#D8E4F4" style="fill:#D8E4F4;fill:color(display-p3 0.8471 0.8941 0.9569);fill-opacity:1;"/>
<path d="M590.749 901.445L632.831 818.112L635.499 812.922L619.643 769.327L642.463 745.454L596.972 727.957C591.193 779.707 589.711 839.464 590.749 901.445Z" fill="#D8E4F4" style="fill:#D8E4F4;fill:color(display-p3 0.8471 0.8941 0.9569);fill-opacity:1;"/>
<path d="M771.378 920.871L694.326 973.214L711.959 1007.91L658.318 1080.57H762.043L791.679 1049.43C807.237 1033.12 811.386 1008.95 802.051 988.339L771.378 920.871Z" fill="#FABCA3" style="fill:#FABCA3;fill:color(display-p3 0.9804 0.7373 0.6392);fill-opacity:1;"/>
<path d="M518.29 673.983C494.582 677.097 485.691 655.596 470.577 632.168C455.463 608.74 447.757 579.677 473.837 573.894C469.391 538.603 484.506 498.123 550.593 503.609C616.68 509.095 639.203 556.397 629.868 585.608C620.533 614.671 608.531 626.385 602.307 645.068C596.084 663.752 584.526 674.428 584.526 674.428" fill="#111111" style="fill:#111111;fill:color(display-p3 0.0667 0.0667 0.0667);fill-opacity:1;"/>
<path d="M596.972 727.956C596.972 727.956 588.823 758.206 551.926 758.206C515.03 758.206 504.213 729.439 504.213 729.439L513.548 724.398C513.548 724.398 515.919 700.524 512.955 673.982C512.511 669.682 511.918 665.382 511.177 660.934L522.735 661.527L588.082 665.234C581.414 674.131 582.599 700.376 583.785 714.315C584.229 719.801 584.674 723.36 584.674 723.36L596.972 727.956Z" fill="#FABCA3" style="fill:#FABCA3;fill:color(display-p3 0.9804 0.7373 0.6392);fill-opacity:1;"/>
<path opacity="0.49" d="M583.784 714.612C572.078 711.795 529.847 706.605 512.955 673.983L522.735 661.676L588.081 665.383C581.562 674.428 582.599 700.674 583.784 714.612Z" fill="#F47D6F" style="fill:#F47D6F;fill:color(display-p3 0.9569 0.4902 0.4353);fill-opacity:1;"/>
<path opacity="0.49" d="M614.665 632.167C616.102 624.354 614.146 617.445 610.279 616.731C606.411 616.02 602.114 621.776 600.677 629.589C599.24 637.402 601.21 644.312 605.078 645.023C608.93 645.735 613.228 639.979 614.665 632.167Z" fill="#F47D6F" style="fill:#F47D6F;fill:color(display-p3 0.9569 0.4902 0.4353);fill-opacity:1;"/>
<path d="M500.508 602.958C499.175 615.413 500.508 636.469 500.508 636.469C500.508 636.469 491.914 611.854 480.356 615.561C468.65 619.268 474.133 645.662 483.912 648.331C493.544 651 498.434 647.59 498.434 647.59C498.434 647.59 512.955 695.929 557.261 695.929C601.566 695.929 610.16 651.297 608.086 634.541C606.011 617.785 609.567 589.316 609.567 589.316L587.637 568.408C587.637 568.408 559.039 605.033 500.508 602.958Z" fill="#FABCA3" style="fill:#FABCA3;fill:color(display-p3 0.9804 0.7373 0.6392);fill-opacity:1;"/>
<path d="M140.732 772.145C140.732 772.145 125.322 788.604 112.578 842.874C99.9833 897.145 92.1298 941.629 96.5751 979.737C99.2423 1002.13 112.875 1046.91 127.544 1080.42H196.003L165.774 970.247L185.927 817.815L140.732 772.145Z" fill="white" style="fill:white;fill-opacity:1;"/>
<path d="M234.381 735.668C230.232 734.63 225.046 739.968 222.971 742.341C220.897 744.713 219.119 747.234 217.489 749.903C216.599 751.237 216.007 752.572 215.118 754.055L213.932 756.131C213.636 756.872 213.34 757.614 213.043 758.207C212.45 759.689 211.71 761.024 211.117 762.507L209.635 766.955C209.339 767.697 209.042 768.438 208.894 769.179L208.301 771.404L207.116 776C206.523 778.966 205.931 781.932 205.338 785.045C203.115 797.056 201.485 809.215 200.3 821.374C199.707 827.454 199.114 833.533 198.67 839.613L206.672 840.057C206.968 833.978 207.264 828.047 207.857 821.967C208.746 809.957 210.08 797.946 211.71 786.083C212.154 783.118 212.599 780.152 213.043 777.187L213.932 772.886L214.377 770.662C214.525 769.921 214.821 769.179 214.969 768.586L216.155 764.286C216.599 762.952 217.192 761.617 217.637 760.134C217.933 759.393 218.081 758.8 218.378 758.058L219.267 756.131C219.859 754.796 220.452 753.462 221.193 752.275C226.972 741.154 239.122 731.516 234.381 735.668Z" fill="#586CB3" style="fill:#586CB3;fill:color(display-p3 0.3451 0.4235 0.7020);fill-opacity:1;"/>
<path d="M220.837 850.73C221.045 839.595 212.199 830.395 201.07 830.18C189.942 829.966 180.751 838.818 180.536 849.954C180.323 861.089 189.169 870.289 200.3 870.504C211.428 870.718 220.615 861.866 220.837 850.73Z" fill="#586CB3" style="fill:#586CB3;fill:color(display-p3 0.3451 0.4235 0.7020);fill-opacity:1;"/>
<path d="M213.725 850.592C213.858 843.387 208.139 837.433 200.937 837.295C193.736 837.156 187.786 842.884 187.647 850.091C187.509 857.296 193.232 863.249 200.433 863.387C207.635 863.526 213.577 857.798 213.725 850.592Z" fill="#2B3378" style="fill:#2B3378;fill:color(display-p3 0.1686 0.2000 0.4706);fill-opacity:1;"/>
<path d="M310.1 725.289C310.1 725.289 312.471 780.449 310.989 824.637C309.804 860.966 289.059 967.579 289.059 967.579L340.476 852.959L329.808 836.499L344.181 832.792C344.033 832.941 349.811 784.898 310.1 725.289Z" fill="#D8E1F3" style="fill:#D8E1F3;fill:color(display-p3 0.8471 0.8824 0.9529);fill-opacity:1;"/>
<path opacity="0.49" d="M277.796 725.881C288.762 726.03 298.838 722.026 307.284 715.502C305.061 700.229 305.95 686.884 305.95 686.884L277.352 686.735L248.902 685.846C248.902 685.846 249.346 697.856 246.827 712.684C255.421 720.543 265.942 725.733 277.796 725.881Z" fill="#F47D6F" style="fill:#F47D6F;fill:color(display-p3 0.9569 0.4902 0.4353);fill-opacity:1;"/>
<path d="M389.523 876.534L368.037 867.637L373.52 959.867L255.273 973.806L396.191 982.999L389.523 876.534Z" fill="#EDEFF8" style="fill:#EDEFF8;fill:color(display-p3 0.9294 0.9373 0.9725);fill-opacity:1;"/>
<path opacity="0.39" d="M198.818 997.68L193.483 1007.32C193.483 1007.32 207.709 1010.58 219.266 1013.4C226.231 1015.03 234.084 1021.11 234.084 1021.11C234.084 1021.11 233.047 1046.32 241.345 1049.13C253.496 1053.14 386.263 1090.06 434.717 1054.77C483.023 1019.63 371.445 1026.74 371.445 1026.74L198.818 997.68Z" fill="#A7BAE0" style="fill:#A7BAE0;fill:color(display-p3 0.6549 0.7294 0.8784);fill-opacity:1;"/>
<path opacity="0.39" d="M336.327 976.327L334.4 964.02C334.4 964.02 237.344 973.509 229.639 972.027C221.933 970.692 252.013 984.334 252.013 984.334L336.327 976.327Z" fill="#A7BAE0" style="fill:#A7BAE0;fill:color(display-p3 0.6549 0.7294 0.8784);fill-opacity:1;"/>
<path d="M317.656 736.26C320.472 735.519 324.176 739.226 325.51 740.857C326.843 742.488 328.177 744.268 329.362 746.047C329.955 746.937 330.4 747.975 330.992 748.864L331.733 750.347C332.03 750.792 332.178 751.385 332.474 751.83C332.919 752.868 333.363 753.758 333.808 754.795L334.845 757.909C334.993 758.354 335.289 758.947 335.289 759.392L335.734 761.023L336.475 764.137C336.919 766.213 337.364 768.289 337.808 770.365C339.438 778.669 340.624 786.972 341.513 795.424C341.957 799.576 342.402 803.728 342.698 808.028L337.216 808.473C336.919 804.321 336.771 800.169 336.327 796.017C335.586 787.714 334.697 779.41 333.511 771.255C333.215 769.179 332.919 767.103 332.474 765.175L331.881 762.21L331.585 760.727C331.437 760.282 331.289 759.689 331.14 759.244L330.251 756.278C329.955 755.389 329.51 754.351 329.214 753.461C329.066 753.016 328.918 752.571 328.621 752.126L327.88 750.792C327.436 749.902 326.992 749.013 326.547 748.123C322.843 740.116 314.396 733.443 317.656 736.26Z" fill="#586CB3" style="fill:#586CB3;fill:color(display-p3 0.3451 0.4235 0.7020);fill-opacity:1;"/>
<path d="M368.926 842.43C368.037 838.278 367.148 834.126 365.962 829.974C365.37 827.898 364.777 825.822 364.184 823.895C363.888 822.857 363.591 821.819 363.147 820.781L362.554 819.15L361.665 817.667C359.294 813.663 355.738 810.846 351.885 808.622C349.959 807.584 347.885 806.694 345.81 805.953C343.736 805.211 341.661 804.618 339.438 803.729L339.29 804.47L339.142 803.729C336.919 804.766 334.993 805.508 332.919 806.249C330.844 807.139 328.918 808.029 327.14 809.215C323.435 811.587 319.879 814.553 317.804 818.705L317.064 820.188L316.471 821.819C316.026 822.857 315.878 823.895 315.582 824.933C315.137 827.009 314.545 829.084 314.1 831.16C313.211 835.312 312.47 839.464 311.729 843.764C310.544 852.216 309.803 860.668 310.544 869.269C310.692 870.306 310.692 871.344 310.84 872.531C310.988 873.569 311.285 874.755 311.581 875.793C312.174 877.869 313.063 879.945 314.248 881.872C315.434 883.8 318.545 887.21 318.545 887.21L323.287 892.252C324.917 893.735 327.436 893.142 328.177 891.066L329.066 888.545C329.807 886.469 328.325 884.245 326.102 884.393L321.064 884.541C320.323 884.541 319.582 884.245 318.99 883.652C317.953 882.614 317.064 881.576 316.323 880.39C315.285 878.758 314.396 876.831 313.952 875.051C313.656 874.162 313.507 873.124 313.359 872.086C313.211 871.048 313.211 870.01 313.063 868.972C312.47 860.668 313.211 852.365 314.544 844.061C315.137 839.909 316.026 835.757 316.915 831.754C317.36 829.678 317.804 827.75 318.397 825.674C318.694 824.636 318.842 823.598 319.286 822.708L319.731 821.374L320.472 820.039C322.25 816.629 325.362 813.96 328.77 811.736C330.548 810.698 332.326 809.808 334.252 809.067C335.882 808.325 337.66 807.732 339.438 807.732C341.217 807.732 342.995 808.177 344.773 808.77C346.699 809.511 348.477 810.253 350.404 811.143C353.96 813.07 357.072 815.591 359.146 819.001L359.887 820.188L360.48 821.522C360.924 822.412 361.221 823.45 361.517 824.34C362.11 826.267 362.702 828.343 363.295 830.419C364.48 834.423 365.518 838.574 366.259 842.578C367.889 850.733 369.222 859.037 369.074 867.341C369.074 868.379 369.074 869.417 368.926 870.455C368.926 871.493 368.629 872.382 368.481 873.42C368.037 875.348 367.296 877.276 366.407 878.907C365.666 880.093 364.925 881.279 363.888 882.317C363.443 882.91 362.702 883.207 361.813 883.207L356.923 883.355C354.701 883.355 353.367 885.728 354.256 887.655L355.293 890.028C356.182 891.955 358.702 892.4 360.331 890.917L364.777 885.579C364.777 885.579 367.74 882.021 368.778 879.945C369.815 878.017 370.704 875.941 371.149 873.717C371.445 872.679 371.593 871.493 371.593 870.455C371.741 869.417 371.741 868.231 371.741 867.193C371.741 859.334 370.556 850.733 368.926 842.43Z" fill="#586CB3" style="fill:#586CB3;fill:color(display-p3 0.3451 0.4235 0.7020);fill-opacity:1;"/>
<path d="M238.085 735.519C218.081 745.602 155.402 750.792 140.733 772.144C103.392 826.563 139.992 1038.6 139.992 1038.6L133.916 1080.27H276.019C276.612 1022.29 278.242 968.764 278.242 968.764L229.639 854.44C229.788 854.292 243.716 732.702 238.085 735.519Z" fill="#F6F8FC" style="fill:#F6F8FC;fill:color(display-p3 0.9647 0.9725 0.9882);fill-opacity:1;"/>
<path d="M336.771 638.396C336.031 678.729 311.878 714.909 277.945 714.316C244.012 713.723 221.193 676.801 221.934 636.469C222.674 596.137 246.679 567.518 280.612 568.112C314.397 568.556 337.512 598.064 336.771 638.396Z" fill="#FABCA3" style="fill:#FABCA3;fill:color(display-p3 0.9804 0.7373 0.6392);fill-opacity:1;"/>
<path d="M246.828 567.37C246.828 567.37 249.198 598.509 290.836 607.109C332.474 615.561 334.697 625.199 336.772 638.396C338.698 651.741 341.217 665.383 359.443 679.766C377.669 694.15 400.636 658.118 400.636 658.118C400.636 658.118 383.003 653.966 378.558 629.499C374.113 605.033 370.853 543.2 317.508 530.151C264.313 517.103 244.309 543.942 246.828 567.37Z" fill="#111111" style="fill:#111111;fill:color(display-p3 0.0667 0.0667 0.0667);fill-opacity:1;"/>
<path d="M262.683 580.715C262.683 580.715 257.2 617.637 227.861 622.382C214.525 624.606 213.488 639.582 216.155 655.3C217.637 663.752 206.968 668.497 201.633 661.973L178.518 634.096C178.518 634.096 190.816 622.085 191.113 609.926C191.261 597.767 211.413 535.341 255.866 548.834C300.468 562.476 262.683 580.715 262.683 580.715Z" fill="#111111" style="fill:#111111;fill:color(display-p3 0.0667 0.0667 0.0667);fill-opacity:1;"/>
<path d="M230.528 623.567C230.528 623.567 221.045 614.077 214.97 619.86C205.042 629.35 208.894 661.082 229.491 654.706" fill="#FABCA3" style="fill:#FABCA3;fill:color(display-p3 0.9804 0.7373 0.6392);fill-opacity:1;"/>
<path d="M328.919 625.198C328.919 625.198 338.847 616.153 344.477 622.084C353.961 632.019 349.071 663.455 328.771 656.337" fill="#FABCA3" style="fill:#FABCA3;fill:color(display-p3 0.9804 0.7373 0.6392);fill-opacity:1;"/>
<path d="M428.345 1032.97C421.085 1001.68 421.677 824.042 421.677 824.042C421.677 824.042 418.714 786.231 410.86 776.889C394.561 757.613 317.212 738.484 317.212 738.484C317.212 738.484 325.51 834.57 319.138 863.04C312.766 891.51 289.799 967.578 289.799 967.578C289.799 967.578 291.132 1025.11 293.503 1080.27H438.273C433.828 1058.47 430.123 1040.83 428.345 1032.97Z" fill="white" style="fill:white;fill-opacity:1;"/>
<path d="M310.1 725.289C310.1 725.289 312.471 780.449 310.989 824.637C309.804 860.966 289.059 967.579 289.059 967.579L340.476 852.959L329.808 836.499L344.181 832.792C344.033 832.941 349.811 784.898 310.1 725.289Z" fill="#EAF0F9" style="fill:#EAF0F9;fill:color(display-p3 0.9176 0.9412 0.9765);fill-opacity:1;"/>
<path d="M242.975 727.217C242.975 727.217 238.974 779.263 241.048 823.451C242.975 868.083 278.537 968.617 278.537 968.617L211.413 850.734L222.674 834.72L208.449 830.568C208.449 830.568 191.409 783.119 242.975 727.217Z" fill="#EAF0F9" style="fill:#EAF0F9;fill:color(display-p3 0.9176 0.9412 0.9765);fill-opacity:1;"/>
<path d="M156.587 873.717L191.409 1080.42H315.434L353.219 1074.04L318.842 870.307H176.591L156.587 873.717Z" fill="#1C633A" style="fill:#1C633A;fill:color(display-p3 0.1098 0.3882 0.2275);fill-opacity:1;"/>
<path d="M169.331 878.759L203.412 1080.42H250.088L338.847 1065.44L303.58 856.072L169.331 878.759Z" fill="#F6F8FC" style="fill:#F6F8FC;fill:color(display-p3 0.9647 0.9725 0.9882);fill-opacity:1;"/>
<path d="M237.493 1010.43C237.493 1010.43 234.974 1040.53 245.642 1042.76C256.311 1045.13 264.757 1023.48 264.757 1023.48L237.493 1010.43Z" fill="#A7BAE0" style="fill:#A7BAE0;fill:color(display-p3 0.6549 0.7294 0.8784);fill-opacity:1;"/>
<path d="M360.036 799.578L410.861 776.891C410.861 776.891 424.345 782.822 442.127 847.176C459.908 911.678 485.987 981.814 459.611 1032.38C433.236 1082.79 326.251 1061.14 225.342 1009.39C225.342 1009.39 184.741 1011.47 169.924 998.125C155.106 984.632 156.884 931.844 164.441 934.809C171.998 937.775 193.336 950.379 193.336 950.379C193.336 950.379 186.519 925.616 197.929 920.871C197.929 920.871 199.411 932.289 206.968 938.516C214.673 944.744 225.49 956.607 226.231 966.69C226.231 966.69 226.824 973.511 236.752 973.066C246.828 972.621 394.117 980.035 394.117 980.035L360.036 799.578Z" fill="#FABCA3" style="fill:#FABCA3;fill:color(display-p3 0.9804 0.7373 0.6392);fill-opacity:1;"/>
<path d="M254.681 1023.48C346.107 1064.55 435.755 1077.9 459.611 1032.23C485.987 981.814 459.76 911.529 442.126 847.027C424.345 782.525 410.861 776.742 410.861 776.742L356.183 799.429L368.186 859.779L390.56 972.176C390.56 972.176 290.837 973.659 251.718 973.066C251.718 973.214 257.941 1002.28 254.681 1023.48Z" fill="white" style="fill:white;fill-opacity:1;"/>
<path d="M428.791 1043.65L434.57 1054.77C434.57 1054.77 356.628 1079.68 245.643 1042.76C245.643 1042.76 255.274 1041.72 254.978 1021.85C254.682 1001.98 263.276 991.303 263.276 991.303L322.399 1010.43L428.791 1043.65Z" fill="#EDEFF8" style="fill:#EDEFF8;fill:color(display-p3 0.9294 0.9373 0.9725);fill-opacity:1;"/>
<path d="M281.56 846.939L188.041 862.73L191.498 883.201L285.013 867.41L281.56 846.939Z" fill="#1C633A" style="fill:#1C633A;fill:color(display-p3 0.1098 0.3882 0.2275);fill-opacity:1;"/>
<path d="M234.381 735.52C230.232 734.482 225.046 739.82 222.971 742.193C220.897 744.565 219.119 747.086 217.489 749.755C216.599 751.09 216.007 752.424 215.118 753.907L213.932 755.983C213.636 756.724 213.34 757.466 213.043 758.059C212.45 759.542 211.71 760.876 211.117 762.359L209.635 766.807C209.339 767.549 209.042 768.29 208.894 769.032L208.301 771.256L207.116 775.853C206.523 778.818 205.931 781.784 205.338 784.898C203.115 796.908 201.485 809.067 200.3 821.226C199.707 827.306 199.114 833.385 198.67 839.465L206.672 839.91C206.968 833.83 207.264 827.899 207.857 821.82C208.746 809.809 210.08 797.798 211.71 785.936C212.154 782.97 212.599 780.004 213.043 777.039L213.932 772.739L214.377 770.514C214.525 769.773 214.821 769.032 214.969 768.439L216.155 764.138C216.599 762.804 217.192 761.469 217.637 759.987C217.933 759.245 218.081 758.652 218.378 757.911L219.267 755.983C219.859 754.648 220.452 753.314 221.193 752.128C226.972 741.155 239.122 731.517 234.381 735.52Z" fill="#AAAAAA" style="fill:#AAAAAA;fill:color(display-p3 0.6667 0.6667 0.6667);fill-opacity:1;"/>
<path d="M220.734 850.684C220.941 839.548 212.095 830.348 200.967 830.133C189.839 829.919 180.646 838.772 180.433 849.907C180.218 861.042 189.065 870.243 200.197 870.458C211.325 870.673 220.512 861.819 220.734 850.684Z" fill="#AAAAAA" style="fill:#AAAAAA;fill:color(display-p3 0.6667 0.6667 0.6667);fill-opacity:1;"/>
<path d="M213.621 850.548C213.755 843.343 208.035 837.39 200.834 837.251C193.632 837.111 187.681 842.841 187.544 850.046C187.404 857.251 193.128 863.204 200.33 863.342C207.531 863.481 213.473 857.753 213.621 850.548Z" fill="#818181" style="fill:#818181;fill:color(display-p3 0.5042 0.5042 0.5042);fill-opacity:1;"/>
<path d="M317.656 736.26C320.472 735.519 324.176 739.226 325.51 740.857C326.843 742.488 328.177 744.267 329.362 746.047C329.955 746.936 330.4 747.974 330.992 748.864L331.733 750.347C332.03 750.792 332.178 751.385 332.474 751.83C332.919 752.868 333.363 753.757 333.808 754.795L334.845 757.909C334.993 758.354 335.289 758.947 335.289 759.392L335.734 761.023L336.475 764.137C336.919 766.213 337.364 768.289 337.808 770.365C339.438 778.668 340.624 786.972 341.513 795.424C341.957 799.576 342.402 803.728 342.698 808.028L337.216 808.473C336.919 804.321 336.771 800.169 336.327 796.017C335.586 787.714 334.697 779.41 333.511 771.254C333.215 769.179 332.919 767.103 332.474 765.175L331.881 762.209L331.585 760.727C331.437 760.282 331.289 759.689 331.14 759.244L330.251 756.278C329.955 755.388 329.51 754.351 329.214 753.461C329.066 753.016 328.918 752.571 328.621 752.126L327.88 750.792C327.436 749.902 326.992 749.012 326.547 748.123C322.843 739.967 314.396 733.443 317.656 736.26Z" fill="#AAAAAA" style="fill:#AAAAAA;fill:color(display-p3 0.6667 0.6667 0.6667);fill-opacity:1;"/>
<path d="M368.926 842.43C368.037 838.278 367.148 834.126 365.962 829.974C365.37 827.898 364.777 825.822 364.184 823.895C363.888 822.857 363.591 821.819 363.147 820.781L362.554 819.15L361.665 817.667C359.294 813.663 355.738 810.846 351.885 808.622C349.959 807.584 347.885 806.694 345.81 805.953C343.736 805.211 341.661 804.618 339.438 803.729L339.29 804.47L339.142 803.729C336.919 804.766 334.993 805.508 332.919 806.249C330.844 807.139 328.918 808.029 327.14 809.215C323.435 811.587 319.879 814.553 317.804 818.705L317.064 820.188L316.471 821.819C316.026 822.857 315.878 823.895 315.582 824.933C315.137 827.009 314.545 829.084 314.1 831.16C313.211 835.312 312.47 839.464 311.729 843.764C310.544 852.216 309.803 860.668 310.544 869.269C310.692 870.306 310.692 871.344 310.84 872.531C310.988 873.569 311.285 874.755 311.581 875.793C312.174 877.869 313.063 879.945 314.248 881.872C315.434 883.8 318.545 887.21 318.545 887.21L323.287 892.252C324.917 893.735 327.436 893.142 328.177 891.066L329.066 888.545C329.807 886.469 328.325 884.245 326.102 884.393L321.064 884.541C320.323 884.541 319.582 884.245 318.99 883.652C317.953 882.614 317.064 881.576 316.323 880.39C315.285 878.758 314.396 876.831 313.952 875.051C313.656 874.162 313.507 873.124 313.359 872.086C313.211 871.048 313.211 870.01 313.063 868.972C312.47 860.668 313.211 852.365 314.544 844.061C315.137 839.909 316.026 835.757 316.915 831.754C317.36 829.678 317.804 827.75 318.397 825.674C318.694 824.636 318.842 823.598 319.286 822.708L319.731 821.374L320.472 820.039C322.25 816.629 325.362 813.96 328.77 811.736C330.548 810.698 332.326 809.808 334.252 809.067C335.882 808.325 337.66 807.732 339.438 807.732C341.217 807.732 342.995 808.177 344.773 808.77C346.699 809.511 348.477 810.253 350.404 811.143C353.96 813.07 357.072 815.591 359.146 819.001L359.887 820.188L360.48 821.522C360.924 822.412 361.221 823.45 361.517 824.34C362.11 826.267 362.702 828.343 363.295 830.419C364.48 834.423 365.518 838.574 366.259 842.578C367.889 850.733 369.222 859.037 369.074 867.341C369.074 868.379 369.074 869.417 368.926 870.455C368.926 871.493 368.629 872.382 368.481 873.42C368.037 875.348 367.296 877.276 366.407 878.907C365.666 880.093 364.925 881.279 363.888 882.317C363.443 882.91 362.702 883.207 361.813 883.207L356.923 883.355C354.701 883.355 353.367 885.728 354.256 887.655L355.293 890.028C356.182 891.955 358.702 892.4 360.331 890.917L364.777 885.579C364.777 885.579 367.74 882.021 368.778 879.945C369.815 878.017 370.704 875.941 371.149 873.717C371.445 872.679 371.593 871.493 371.593 870.455C371.741 869.417 371.741 868.231 371.741 867.193C371.741 859.185 370.556 850.733 368.926 842.43Z" fill="#AAAAAA" style="fill:#AAAAAA;fill:color(display-p3 0.6667 0.6667 0.6667);fill-opacity:1;"/>
</g>
<defs>
<clipPath id="clip0_533_519">
<rect width="836" height="1080" fill="white" style="fill:white;fill-opacity:1;" transform="translate(0 0.568359)"/>
</clipPath>
</defs>
</svg>
