<svg width="760" height="611" viewBox="0 0 760 611" fill="none" xmlns="http://www.w3.org/2000/svg">
<g filter="url(#filter0_d_208_2)">
<path d="M739.637 251.98H707.909V283.708H676.182V251.98H644.454V220.253H676.182V188.525H707.909V220.253H739.637" fill="#27AE60" style="fill:#27AE60;fill:color(display-p3 0.1529 0.6824 0.3765);fill-opacity:1;"/>
<path d="M739.637 332.427H727.766V344.298H715.895V332.427H704.024V320.557H715.895V308.686H727.766V320.557H739.637" fill="#27AE60" style="fill:#27AE60;fill:color(display-p3 0.1529 0.6824 0.3765);fill-opacity:1;"/>
<path d="M621.341 267.028H609.47V278.899H597.599V267.028H585.729V255.157H597.599V243.287H609.47V255.157H621.341" fill="#27AE60" style="fill:#27AE60;fill:color(display-p3 0.1529 0.6824 0.3765);fill-opacity:1;"/>
</g>
<g filter="url(#filter1_d_208_2)">
<rect x="16.6851" y="16.7067" width="253.115" height="253.115" rx="15" fill="#27AE60" style="fill:#27AE60;fill:color(display-p3 0.1529 0.6824 0.3765);fill-opacity:1;"/>
</g>
<path d="M130.478 85.8211L117.712 98.5863V111.351H98.5646C91.2247 111.351 86.5654 117.734 85.7995 124.117L79.4169 187.943C78.651 194.325 82.8635 200.708 92.182 200.708H194.303C203.622 200.708 207.835 194.325 207.069 187.943L200.686 124.117C199.92 117.734 194.686 111.351 187.921 111.351H168.773V98.5863L156.008 85.8211H130.478ZM130.478 98.5863H156.008V111.351H130.478V98.5863ZM136.86 130.499H149.625V149.647H168.773V162.412H149.625V181.56H136.86V162.412H117.712V149.647H136.86V130.499Z" fill="#1C633A" style="fill:#1C633A;fill:color(display-p3 0.1098 0.3882 0.2275);fill-opacity:1;"/>
<g filter="url(#filter2_d_208_2)">
<rect x="306.685" y="16.7067" width="253.115" height="253.115" rx="15" fill="#27AE60" style="fill:#27AE60;fill:color(display-p3 0.1529 0.6824 0.3765);fill-opacity:1;"/>
</g>
<path d="M434.364 95.4918C437.429 92.4258 441.069 89.9938 445.074 88.3345C449.08 86.6752 453.373 85.8211 457.709 85.8211C462.044 85.8211 466.338 86.6752 470.343 88.3345C474.349 89.9938 477.988 92.4258 481.054 95.4918C484.12 98.5574 486.552 102.197 488.211 106.202C489.87 110.208 490.724 114.501 490.724 118.837C490.724 123.172 489.87 127.466 488.211 131.471C486.552 135.477 484.12 139.116 481.054 142.182L453.902 169.333L453.864 169.295L432.122 191.037C429.056 194.103 425.417 196.535 421.411 198.194C417.406 199.854 413.113 200.708 408.777 200.708C404.441 200.708 400.148 199.854 396.143 198.194C392.137 196.535 388.498 194.103 385.432 191.037C382.366 187.972 379.934 184.332 378.275 180.326C376.615 176.321 375.761 172.028 375.761 167.692C375.761 163.356 376.615 159.063 378.275 155.058C379.934 151.052 382.366 147.413 385.432 144.347L412.584 117.192L412.622 117.23L434.364 95.4918ZM448.45 163.885L412.58 128.015L390.838 149.757C388.482 152.112 386.614 154.908 385.339 157.985C384.064 161.063 383.407 164.361 383.407 167.692C383.407 171.023 384.064 174.322 385.339 177.399C386.614 180.476 388.482 183.272 390.838 185.627C393.193 187.983 395.989 189.852 399.066 191.127C402.144 192.402 405.442 193.058 408.773 193.058C412.104 193.058 415.403 192.402 418.48 191.127C421.557 189.852 424.353 187.983 426.708 185.627L448.45 163.885ZM479.057 120.252C479.057 118.223 478.251 116.277 476.816 114.842C475.381 113.407 473.435 112.601 471.405 112.601C469.376 112.601 467.43 113.407 465.995 114.842C464.56 116.277 463.754 118.223 463.754 120.252C463.754 122.282 464.56 124.228 465.995 125.663C467.43 127.098 469.376 127.904 471.405 127.904C473.435 127.904 475.381 127.098 476.816 125.663C478.251 124.228 479.057 122.282 479.057 120.252Z" fill="#1C633A" style="fill:#1C633A;fill:color(display-p3 0.1098 0.3882 0.2275);fill-opacity:1;"/>
<g filter="url(#filter3_d_208_2)">
<rect x="16.6851" y="301.471" width="253.115" height="253.115" rx="15" fill="#27AE60" style="fill:#27AE60;fill:color(display-p3 0.1529 0.6824 0.3765);fill-opacity:1;"/>
</g>
<rect x="69.5485" y="354.335" width="147.389" height="147.389" rx="15.9409" stroke="#1C633A" style="stroke:#1C633A;stroke:color(display-p3 0.1098 0.3882 0.2275);stroke-opacity:1;" stroke-width="9.86817"/>
<path d="M105.288 396.527H181.197" stroke="#1C633A" style="stroke:#1C633A;stroke:color(display-p3 0.1098 0.3882 0.2275);stroke-opacity:1;" stroke-width="9.86817" stroke-linecap="round"/>
<path d="M105.288 428.409H181.197" stroke="#1C633A" style="stroke:#1C633A;stroke:color(display-p3 0.1098 0.3882 0.2275);stroke-opacity:1;" stroke-width="9.86817" stroke-linecap="round"/>
<path d="M105.288 459.531H141.725" stroke="#1C633A" style="stroke:#1C633A;stroke:color(display-p3 0.1098 0.3882 0.2275);stroke-opacity:1;" stroke-width="9.86817" stroke-linecap="round"/>
<g filter="url(#filter4_d_208_2)">
<rect x="306.685" y="301.471" width="253.115" height="253.115" rx="15" fill="#27AE60" style="fill:#27AE60;fill:color(display-p3 0.1529 0.6824 0.3765);fill-opacity:1;"/>
</g>
<path d="M360.181 228.878C360.181 228.878 359.498 176.334 362.774 183.977C375.467 213.729 402.353 195.987 413.681 239.797C421.733 271.05 400.169 297.664 434.016 312.813C467.181 327.689 470.32 390.606 413.954 404.8C357.724 419.13 294.671 410.805 294.671 410.805L220.563 397.294C220.563 397.294 154.78 411.624 125.709 386.785C96.6394 361.809 102.644 309.401 140.449 298.619C167.336 290.976 158.874 261.77 158.191 242.526C157.509 223.146 159.966 204.039 190.674 186.024C218.925 169.783 360.181 228.878 360.181 228.878Z" fill="#111111" style="fill:#111111;fill:color(display-p3 0.0667 0.0667 0.0667);fill-opacity:1;"/>
<path d="M331.657 210.727C331.657 210.727 324.287 228.469 338.208 235.429C352.674 242.663 352.811 252.216 350.491 277.328C348.307 302.304 372.191 299.848 390.479 314.451C408.768 329.054 416.001 390.06 379.424 400.296C379.424 400.296 306.681 426.5 265.874 409.713C224.93 392.926 202.82 415.718 176.889 393.882C145.09 366.995 146.181 318.409 173.75 303.669C199.681 289.748 188.763 284.289 187.944 265.728C187.125 247.167 202.001 243.345 209.917 238.705C217.696 234.065 222.746 220.963 222.883 213.866C222.883 206.496 331.657 210.727 331.657 210.727Z" fill="#0F1419" style="fill:#0F1419;fill:color(display-p3 0.0588 0.0784 0.0980);fill-opacity:1;"/>
<path d="M395.12 331.647C378.879 317.453 321.83 303.396 308.865 296.299C296.036 289.066 298.492 245.802 298.492 245.802L272.152 245.665L245.948 244.846C245.948 244.846 246.903 288.247 233.801 294.934C220.699 301.622 163.105 313.632 146.454 327.28C129.667 340.928 145.636 427.046 145.636 427.046L232.436 427.729L269.422 414.9L305.862 428.957L392.663 431.277C392.527 431.55 411.361 345.841 395.12 331.647Z" fill="#FABCA3" style="fill:#FABCA3;fill:color(display-p3 0.9804 0.7373 0.6392);fill-opacity:1;"/>
<path d="M356.496 315.133L308.865 296.299L274.745 382.69L235.985 295.071L178.391 312.813L181.939 611.157H370.144L356.496 315.133Z" fill="#38BCA4" style="fill:#38BCA4;fill:color(display-p3 0.2182 0.7375 0.6440);fill-opacity:1;"/>
<path d="M481.101 288.247L448.074 371.226L406.584 475.633L391.435 513.847L320.465 465.67L371.782 350.891C378.879 334.923 391.981 322.503 408.358 316.225L439.339 304.351L481.101 288.247Z" fill="#EAF0F9" style="fill:#EAF0F9;fill:color(display-p3 0.9176 0.9412 0.9765);fill-opacity:1;"/>
<path d="M566.538 286.746L599.566 369.725L641.055 474.132L656.205 512.346L727.174 464.169L675.858 349.39C668.761 333.421 655.659 321.002 639.281 314.724L608.3 302.85L566.538 286.746Z" fill="#EAF0F9" style="fill:#EAF0F9;fill:color(display-p3 0.9176 0.9412 0.9765);fill-opacity:1;"/>
<path d="M320.465 465.67L292.351 527.768C283.752 546.739 287.574 568.985 301.904 583.997L327.835 611.157H423.78L375.33 545.783L391.571 513.847L320.465 465.67Z" fill="#FABCA3" style="fill:#FABCA3;fill:color(display-p3 0.9804 0.7373 0.6392);fill-opacity:1;"/>
<path d="M577.183 611.157L566.538 286.746L481.102 288.247L467.59 611.157H577.183Z" fill="#38BCA4" style="fill:#38BCA4;fill:color(display-p3 0.2182 0.7375 0.6440);fill-opacity:1;"/>
<path d="M445.753 366.449C424.599 410.805 407.13 443.833 407.13 443.833C407.13 443.833 406.993 457.072 406.584 475.769C405.765 512.209 404.127 569.531 400.715 588.774C400.033 592.732 398.395 600.648 396.075 611.293H478.508C482.739 557.93 485.878 501.973 486.834 447.928C487.925 390.879 486.424 336.015 481.101 288.247C469.774 315.27 457.218 342.429 445.753 366.449Z" fill="#EAF0F9" style="fill:#EAF0F9;fill:color(display-p3 0.9176 0.9412 0.9765);fill-opacity:1;"/>
<path d="M646.924 587.136C643.512 567.893 641.874 510.708 641.055 474.132C640.646 455.434 640.509 442.195 640.509 442.195C640.509 442.195 623.04 409.167 601.886 364.812C590.422 340.928 577.866 313.632 566.538 286.609C561.215 334.24 559.85 389.242 560.806 446.29C561.761 500.882 564.9 557.384 569.131 611.02H651.837C649.381 599.829 647.606 591.367 646.924 587.136Z" fill="#EAF0F9" style="fill:#EAF0F9;fill:color(display-p3 0.9176 0.9412 0.9765);fill-opacity:1;"/>
<path d="M486.834 447.791L448.074 371.09L445.617 366.313L460.22 326.188L439.202 304.215L481.101 288.11C486.424 335.878 487.926 390.743 486.834 447.791Z" fill="#D8E4F4" style="fill:#D8E4F4;fill:color(display-p3 0.8471 0.8941 0.9569);fill-opacity:1;"/>
<path d="M560.806 446.426L599.566 369.725L602.022 364.948L587.419 324.823L608.437 302.85L566.538 286.746C561.215 334.377 559.85 389.378 560.806 446.426Z" fill="#D8E4F4" style="fill:#D8E4F4;fill:color(display-p3 0.8471 0.8941 0.9569);fill-opacity:1;"/>
<path d="M727.174 464.305L656.204 512.482L672.446 544.418L623.04 611.293H718.575L745.871 582.633C760.202 567.62 764.023 545.374 755.425 526.403L727.174 464.305Z" fill="#FABCA3" style="fill:#FABCA3;fill:color(display-p3 0.9804 0.7373 0.6392);fill-opacity:1;"/>
<path d="M494.067 237.067C472.23 239.933 464.042 220.144 450.121 198.58C436.2 177.016 429.103 150.266 453.123 144.944C449.029 112.462 462.95 75.2028 523.82 80.2526C584.689 85.3023 605.434 128.839 596.836 155.726C588.238 182.475 577.183 193.257 571.451 210.454C565.719 227.65 555.073 237.477 555.073 237.477" fill="#111111" style="fill:#111111;fill:color(display-p3 0.0667 0.0667 0.0667);fill-opacity:1;"/>
<path d="M566.538 286.746C566.538 286.746 559.031 314.587 525.048 314.587C491.065 314.587 481.102 288.11 481.102 288.11L489.7 283.47C489.7 283.47 491.883 261.497 489.154 237.067C488.744 233.109 488.199 229.151 487.516 225.057L498.161 225.603L558.349 229.015C552.207 237.204 553.299 261.36 554.391 274.189C554.8 279.239 555.21 282.515 555.21 282.515L566.538 286.746Z" fill="#FABCA3" style="fill:#FABCA3;fill:color(display-p3 0.9804 0.7373 0.6392);fill-opacity:1;"/>
<path opacity="0.49" d="M554.391 274.462C543.609 271.869 504.712 267.093 489.154 237.067L498.161 225.739L558.349 229.151C552.344 237.477 553.299 261.633 554.391 274.462Z" fill="#F47D6F" style="fill:#F47D6F;fill:color(display-p3 0.9569 0.4902 0.4353);fill-opacity:1;"/>
<path opacity="0.49" d="M582.833 198.579C584.157 191.387 582.356 185.028 578.794 184.371C575.232 183.716 571.274 189.014 569.95 196.205C568.626 203.396 570.441 209.756 574.003 210.411C577.552 211.066 581.51 205.768 582.833 198.579Z" fill="#F47D6F" style="fill:#F47D6F;fill:color(display-p3 0.9569 0.4902 0.4353);fill-opacity:1;"/>
<path d="M477.69 171.694C476.461 183.158 477.69 202.538 477.69 202.538C477.69 202.538 469.774 179.882 459.128 183.294C448.347 186.706 453.396 211 462.404 213.456C471.275 215.913 475.779 212.774 475.779 212.774C475.779 212.774 489.154 257.266 529.961 257.266C570.768 257.266 578.684 216.186 576.774 200.764C574.863 185.341 578.138 159.138 578.138 159.138L557.939 139.894C557.939 139.894 531.599 173.605 477.69 171.694Z" fill="#FABCA3" style="fill:#FABCA3;fill:color(display-p3 0.9804 0.7373 0.6392);fill-opacity:1;"/>
<path d="M146.318 327.416C146.318 327.416 132.124 342.566 120.387 392.517C108.786 442.468 101.553 483.412 105.647 518.487C108.104 539.096 120.66 580.312 134.171 611.157H197.225L169.383 509.753L187.944 369.452L146.318 327.416Z" fill="white" style="fill:white;fill-opacity:1;"/>
<path d="M232.573 293.842C228.751 292.887 223.974 297.8 222.064 299.984C220.153 302.168 218.515 304.488 217.014 306.944C216.195 308.173 215.649 309.401 214.83 310.766L213.738 312.677C213.466 313.359 213.193 314.041 212.92 314.587C212.374 315.952 211.691 317.18 211.145 318.545L209.781 322.64C209.508 323.322 209.235 324.004 209.098 324.687L208.552 326.734L207.46 330.965C206.915 333.694 206.369 336.424 205.823 339.29C203.776 350.345 202.274 361.536 201.182 372.727C200.636 378.323 200.091 383.919 199.681 389.514L207.051 389.924C207.324 384.328 207.597 378.869 208.143 373.273C208.962 362.219 210.19 351.164 211.691 340.245C212.101 337.516 212.51 334.786 212.92 332.057L213.738 328.099L214.148 326.052C214.284 325.369 214.557 324.687 214.694 324.141L215.786 320.183C216.195 318.955 216.741 317.726 217.15 316.362C217.423 315.679 217.56 315.133 217.833 314.451L218.652 312.677C219.198 311.448 219.744 310.22 220.426 309.128C225.749 298.892 236.94 290.021 232.573 293.842Z" fill="#586CB3" style="fill:#586CB3;fill:color(display-p3 0.3451 0.4235 0.7020);fill-opacity:1;"/>
<path d="M220.099 399.746C220.29 389.498 212.142 381.03 201.892 380.832C191.643 380.635 183.177 388.783 182.979 399.033C182.782 409.281 190.93 417.749 201.182 417.947C211.432 418.144 219.894 409.996 220.099 399.746Z" fill="#586CB3" style="fill:#586CB3;fill:color(display-p3 0.3451 0.4235 0.7020);fill-opacity:1;"/>
<path d="M213.547 399.621C213.67 392.989 208.402 387.51 201.769 387.383C195.136 387.254 189.657 392.527 189.528 399.159C189.402 405.791 194.672 411.271 201.305 411.398C207.938 411.526 213.411 406.254 213.547 399.621Z" fill="#2B3378" style="fill:#2B3378;fill:color(display-p3 0.1686 0.2000 0.4706);fill-opacity:1;"/>
<path d="M302.314 284.289C302.314 284.289 304.497 335.059 303.133 375.73C302.041 409.167 282.934 507.296 282.934 507.296L330.292 401.798L320.465 386.648L333.704 383.236C333.567 383.373 338.89 339.154 302.314 284.289Z" fill="#D8E1F3" style="fill:#D8E1F3;fill:color(display-p3 0.8471 0.8824 0.9529);fill-opacity:1;"/>
<path opacity="0.49" d="M272.561 284.835C282.661 284.971 291.941 281.286 299.721 275.281C297.673 261.224 298.492 248.941 298.492 248.941L272.152 248.804L245.948 247.985C245.948 247.985 246.357 259.04 244.037 272.688C251.953 279.922 261.643 284.698 272.561 284.835Z" fill="#F47D6F" style="fill:#F47D6F;fill:color(display-p3 0.9569 0.4902 0.4353);fill-opacity:1;"/>
<path d="M375.467 423.498L355.677 415.309L360.727 500.199L251.816 513.028L381.608 521.49L375.467 423.498Z" fill="#EDEFF8" style="fill:#EDEFF8;fill:color(display-p3 0.9294 0.9373 0.9725);fill-opacity:1;"/>
<path opacity="0.39" d="M199.818 535.001L194.904 543.872C194.904 543.872 208.007 546.875 218.652 549.468C225.066 550.969 232.3 556.565 232.3 556.565C232.3 556.565 231.345 579.767 238.987 582.36C250.179 586.045 372.464 620.028 417.093 587.546C461.585 555.2 358.816 561.751 358.816 561.751L199.818 535.001Z" fill="#A7BAE0" style="fill:#A7BAE0;fill:color(display-p3 0.6549 0.7294 0.8784);fill-opacity:1;"/>
<path opacity="0.39" d="M326.471 515.348L324.696 504.021C324.696 504.021 235.302 512.755 228.206 511.39C221.109 510.162 248.814 522.718 248.814 522.718L326.471 515.348Z" fill="#A7BAE0" style="fill:#A7BAE0;fill:color(display-p3 0.6549 0.7294 0.8784);fill-opacity:1;"/>
<path d="M309.274 294.388C311.867 293.706 315.279 297.118 316.507 298.619C317.736 300.121 318.964 301.758 320.056 303.396C320.602 304.215 321.011 305.17 321.557 305.989L322.24 307.354C322.513 307.763 322.649 308.309 322.922 308.719C323.331 309.674 323.741 310.493 324.15 311.448L325.106 314.314C325.242 314.724 325.515 315.27 325.515 315.679L325.925 317.18L326.607 320.047C327.016 321.957 327.426 323.868 327.835 325.779C329.337 333.421 330.428 341.064 331.247 348.844C331.657 352.665 332.066 356.486 332.339 360.444L327.289 360.854C327.016 357.032 326.88 353.211 326.47 349.39C325.788 341.747 324.969 334.104 323.877 326.598C323.604 324.687 323.331 322.776 322.922 321.002L322.376 318.272L322.103 316.907C321.967 316.498 321.83 315.952 321.694 315.543L320.875 312.813C320.602 311.994 320.192 311.039 319.919 310.22C319.783 309.811 319.646 309.401 319.373 308.992L318.691 307.763C318.282 306.945 317.872 306.126 317.463 305.307C314.051 297.937 306.272 291.795 309.274 294.388Z" fill="#586CB3" style="fill:#586CB3;fill:color(display-p3 0.3451 0.4235 0.7020);fill-opacity:1;"/>
<path d="M356.496 392.108C355.677 388.286 354.858 384.465 353.766 380.643C353.22 378.733 352.674 376.822 352.129 375.048C351.856 374.092 351.583 373.137 351.173 372.182L350.627 370.68L349.808 369.316C347.625 365.631 344.349 363.037 340.801 360.99C339.027 360.035 337.116 359.216 335.205 358.534C333.295 357.851 331.384 357.305 329.337 356.486L329.2 357.169L329.064 356.486C327.016 357.442 325.242 358.124 323.331 358.807C321.421 359.626 319.646 360.444 318.009 361.536C314.597 363.72 311.321 366.449 309.411 370.271L308.728 371.636L308.182 373.137C307.773 374.092 307.636 375.048 307.363 376.003C306.954 377.914 306.408 379.824 305.999 381.735C305.18 385.557 304.497 389.378 303.815 393.336C302.723 401.115 302.041 408.895 302.723 416.81C302.86 417.766 302.86 418.721 302.996 419.813C303.132 420.768 303.405 421.86 303.678 422.815C304.224 424.726 305.043 426.637 306.135 428.411C307.227 430.185 310.093 433.324 310.093 433.324L314.46 437.965C315.962 439.329 318.282 438.783 318.964 436.873L319.783 434.553C320.465 432.642 319.101 430.595 317.053 430.731L312.413 430.868C311.731 430.868 311.048 430.595 310.502 430.049C309.547 429.093 308.728 428.138 308.046 427.046C307.09 425.545 306.272 423.771 305.862 422.133C305.589 421.314 305.453 420.359 305.316 419.403C305.18 418.448 305.18 417.493 305.043 416.537C304.497 408.895 305.18 401.252 306.408 393.609C306.954 389.787 307.773 385.966 308.592 382.281C309.001 380.37 309.411 378.596 309.957 376.685C310.23 375.73 310.366 374.775 310.775 373.956L311.185 372.728L311.867 371.499C313.505 368.36 316.371 365.904 319.51 363.856C321.148 362.901 322.786 362.082 324.56 361.4C326.061 360.717 327.699 360.171 329.337 360.171C330.974 360.171 332.612 360.581 334.25 361.127C336.024 361.809 337.662 362.492 339.436 363.31C342.712 365.085 345.578 367.405 347.488 370.544L348.171 371.636L348.717 372.864C349.126 373.683 349.399 374.638 349.672 375.457C350.218 377.231 350.764 379.142 351.31 381.053C352.402 384.738 353.357 388.559 354.039 392.244C355.541 399.75 356.769 407.393 356.632 415.036C356.632 415.991 356.632 416.947 356.496 417.902C356.496 418.858 356.223 419.676 356.086 420.632C355.677 422.406 354.995 424.18 354.176 425.681C353.493 426.773 352.811 427.865 351.856 428.82C351.446 429.366 350.764 429.639 349.945 429.639L345.441 429.776C343.394 429.776 342.166 431.96 342.984 433.734L343.94 435.917C344.759 437.692 347.079 438.101 348.58 436.736L352.674 431.823C352.674 431.823 355.404 428.548 356.36 426.637C357.315 424.863 358.134 422.952 358.543 420.905C358.816 419.949 358.952 418.858 358.952 417.902C359.089 416.947 359.089 415.855 359.089 414.9C359.089 407.666 357.997 399.75 356.496 392.108Z" fill="#586CB3" style="fill:#586CB3;fill:color(display-p3 0.3451 0.4235 0.7020);fill-opacity:1;"/>
<path d="M235.985 293.706C217.56 302.987 159.829 307.763 146.318 327.416C111.925 377.504 145.635 572.67 145.635 572.67L140.04 611.02H270.923C271.469 557.657 272.97 508.388 272.97 508.388L228.205 403.162C228.342 403.026 241.171 291.113 235.985 293.706Z" fill="#F6F8FC" style="fill:#F6F8FC;fill:color(display-p3 0.9647 0.9725 0.9882);fill-opacity:1;"/>
<path d="M326.88 204.312C326.197 241.434 303.951 274.735 272.698 274.189C241.444 273.644 220.426 239.66 221.108 202.538C221.791 165.416 243.901 139.075 275.154 139.621C306.272 140.031 327.562 167.19 326.88 204.312Z" fill="#FABCA3" style="fill:#FABCA3;fill:color(display-p3 0.9804 0.7373 0.6392);fill-opacity:1;"/>
<path d="M244.037 138.939C244.037 138.939 246.221 167.599 284.571 175.515C322.922 183.294 324.969 192.165 326.88 204.312C328.654 216.595 330.974 229.151 347.761 242.39C364.548 255.628 385.702 222.464 385.702 222.464C385.702 222.464 369.461 218.642 365.367 196.123C361.273 173.604 358.27 116.692 309.137 104.682C260.141 92.672 241.717 117.375 244.037 138.939Z" fill="#111111" style="fill:#111111;fill:color(display-p3 0.0667 0.0667 0.0667);fill-opacity:1;"/>
<path d="M258.64 151.221C258.64 151.221 253.59 185.205 226.568 189.572C214.284 191.619 213.329 205.404 215.786 219.871C217.151 227.65 207.324 232.017 202.411 226.012L181.12 200.354C181.12 200.354 192.448 189.299 192.721 178.108C192.857 166.916 211.418 109.459 252.362 121.878C293.442 134.434 258.64 151.221 258.64 151.221Z" fill="#111111" style="fill:#111111;fill:color(display-p3 0.0667 0.0667 0.0667);fill-opacity:1;"/>
<path d="M229.024 190.664C229.024 190.664 220.29 181.93 214.694 187.252C205.55 195.987 209.098 225.193 228.069 219.325" fill="#FABCA3" style="fill:#FABCA3;fill:color(display-p3 0.9804 0.7373 0.6392);fill-opacity:1;"/>
<path d="M319.647 192.165C319.647 192.165 328.791 183.84 333.977 189.299C342.712 198.444 338.208 227.377 319.51 220.826" fill="#FABCA3" style="fill:#FABCA3;fill:color(display-p3 0.9804 0.7373 0.6392);fill-opacity:1;"/>
<path d="M411.224 567.483C404.537 538.686 405.083 375.184 405.083 375.184C405.083 375.184 402.353 340.382 395.119 331.784C380.107 314.041 308.865 296.436 308.865 296.436C308.865 296.436 316.508 384.874 310.639 411.078C304.77 437.282 283.616 507.296 283.616 507.296C283.616 507.296 284.844 560.25 287.028 611.02H420.368C416.274 590.958 412.862 574.717 411.224 567.483Z" fill="white" style="fill:white;fill-opacity:1;"/>
<path d="M302.314 284.289C302.314 284.289 304.497 335.059 303.133 375.73C302.041 409.167 282.934 507.296 282.934 507.296L330.292 401.798L320.465 386.648L333.704 383.236C333.567 383.373 338.89 339.154 302.314 284.289Z" fill="#EAF0F9" style="fill:#EAF0F9;fill:color(display-p3 0.9176 0.9412 0.9765);fill-opacity:1;"/>
<path d="M240.489 286.063C240.489 286.063 236.804 333.967 238.714 374.638C240.488 415.718 273.244 508.251 273.244 508.251L211.418 399.75L221.791 385.011L208.689 381.189C208.689 381.189 192.994 337.516 240.489 286.063Z" fill="#EAF0F9" style="fill:#EAF0F9;fill:color(display-p3 0.9176 0.9412 0.9765);fill-opacity:1;"/>
<path d="M160.921 420.905L192.994 611.157H307.227L342.029 605.288L310.366 417.766H179.346L160.921 420.905Z" fill="#1C633A" style="fill:#1C633A;fill:color(display-p3 0.1098 0.3882 0.2275);fill-opacity:1;"/>
<path d="M172.658 425.545L204.049 611.157H247.04L328.791 597.372L296.309 404.664L172.658 425.545Z" fill="#F6F8FC" style="fill:#F6F8FC;fill:color(display-p3 0.9647 0.9725 0.9882);fill-opacity:1;"/>
<path d="M235.439 546.739C235.439 546.739 233.119 574.444 242.945 576.491C252.772 578.675 260.551 558.749 260.551 558.749L235.439 546.739Z" fill="#A7BAE0" style="fill:#A7BAE0;fill:color(display-p3 0.6549 0.7294 0.8784);fill-opacity:1;"/>
<path d="M348.307 352.665L395.119 331.784C395.119 331.784 407.539 337.243 423.917 396.475C440.294 455.843 464.314 520.398 440.021 566.937C415.728 613.34 317.19 593.414 224.247 545.783C224.247 545.783 186.852 547.694 173.204 535.411C159.556 522.991 161.194 474.405 168.155 477.134C175.115 479.864 194.768 491.464 194.768 491.464C194.768 491.464 188.49 468.672 198.999 464.305C198.999 464.305 200.364 474.814 207.324 480.546C214.421 486.278 224.384 497.197 225.066 506.477C225.066 506.477 225.612 512.755 234.756 512.346C244.037 511.936 379.697 518.76 379.697 518.76L348.307 352.665Z" fill="#FABCA3" style="fill:#FABCA3;fill:color(display-p3 0.9804 0.7373 0.6392);fill-opacity:1;"/>
<path d="M251.27 558.749C335.478 596.554 418.048 608.837 440.021 566.801C464.314 520.398 440.158 455.707 423.917 396.338C407.539 336.97 395.119 331.647 395.119 331.647L344.759 352.529L355.813 408.076L376.422 511.527C376.422 511.527 284.571 512.892 248.541 512.346C248.541 512.482 254.273 539.232 251.27 558.749Z" fill="white" style="fill:white;fill-opacity:1;"/>
<path d="M411.634 577.31L416.956 587.546C416.956 587.546 345.168 610.474 242.945 576.491C242.945 576.491 251.816 575.536 251.543 557.247C251.27 538.959 259.186 529.133 259.186 529.133L313.641 546.739L411.634 577.31Z" fill="#EDEFF8" style="fill:#EDEFF8;fill:color(display-p3 0.9294 0.9373 0.9725);fill-opacity:1;"/>
<path d="M276.028 396.258L189.892 410.792L193.076 429.634L279.208 415.099L276.028 396.258Z" fill="#1C633A" style="fill:#1C633A;fill:color(display-p3 0.1098 0.3882 0.2275);fill-opacity:1;"/>
<path d="M232.573 293.706C228.751 292.751 223.974 297.664 222.064 299.848C220.153 302.031 218.515 304.351 217.014 306.808C216.195 308.036 215.649 309.265 214.83 310.629L213.738 312.54C213.466 313.223 213.193 313.905 212.92 314.451C212.374 315.816 211.691 317.044 211.145 318.409L209.781 322.503C209.508 323.186 209.235 323.868 209.098 324.55L208.552 326.598L207.46 330.828C206.915 333.558 206.369 336.288 205.823 339.154C203.776 350.208 202.274 361.4 201.182 372.591C200.636 378.187 200.091 383.782 199.681 389.378L207.051 389.787C207.324 384.192 207.597 378.733 208.143 373.137C208.962 362.082 210.19 351.027 211.691 340.109C212.101 337.379 212.51 334.65 212.92 331.92L213.738 327.962L214.148 325.915C214.284 325.233 214.557 324.55 214.694 324.004L215.786 320.047C216.195 318.818 216.741 317.59 217.15 316.225C217.423 315.543 217.56 314.997 217.833 314.314L218.652 312.54C219.198 311.312 219.744 310.084 220.426 308.992C225.749 298.892 236.94 290.021 232.573 293.706Z" fill="#AAAAAA" style="fill:#AAAAAA;fill:color(display-p3 0.6667 0.6667 0.6667);fill-opacity:1;"/>
<path d="M220.003 399.705C220.194 389.456 212.046 380.987 201.797 380.789C191.547 380.593 183.08 388.741 182.883 398.99C182.686 409.238 190.835 417.707 201.087 417.905C211.337 418.103 219.798 409.954 220.003 399.705Z" fill="#AAAAAA" style="fill:#AAAAAA;fill:color(display-p3 0.6667 0.6667 0.6667);fill-opacity:1;"/>
<path d="M213.452 399.58C213.575 392.948 208.307 387.469 201.674 387.34C195.041 387.212 189.56 392.486 189.433 399.117C189.305 405.749 194.577 411.228 201.21 411.355C207.843 411.483 213.316 406.211 213.452 399.58Z" fill="#818181" style="fill:#818181;fill:color(display-p3 0.5042 0.5042 0.5042);fill-opacity:1;"/>
<path d="M309.274 294.388C311.867 293.706 315.279 297.118 316.507 298.619C317.736 300.121 318.964 301.758 320.056 303.396C320.602 304.215 321.011 305.17 321.557 305.989L322.24 307.354C322.513 307.763 322.649 308.309 322.922 308.719C323.331 309.674 323.741 310.493 324.15 311.448L325.106 314.314C325.242 314.724 325.515 315.27 325.515 315.679L325.925 317.18L326.607 320.046C327.016 321.957 327.426 323.868 327.835 325.779C329.337 333.421 330.428 341.064 331.247 348.844C331.657 352.665 332.066 356.486 332.339 360.444L327.289 360.854C327.016 357.032 326.88 353.211 326.47 349.39C325.788 341.747 324.969 334.104 323.877 326.598C323.604 324.687 323.331 322.776 322.922 321.002L322.376 318.272L322.103 316.907C321.967 316.498 321.83 315.952 321.694 315.543L320.875 312.813C320.602 311.994 320.192 311.039 319.919 310.22C319.783 309.811 319.646 309.401 319.373 308.992L318.691 307.763C318.282 306.944 317.872 306.126 317.463 305.307C314.051 297.8 306.272 291.795 309.274 294.388Z" fill="#AAAAAA" style="fill:#AAAAAA;fill:color(display-p3 0.6667 0.6667 0.6667);fill-opacity:1;"/>
<path d="M356.496 392.108C355.677 388.286 354.858 384.465 353.766 380.643C353.22 378.733 352.674 376.822 352.129 375.048C351.856 374.092 351.583 373.137 351.173 372.182L350.627 370.68L349.808 369.316C347.625 365.631 344.349 363.037 340.801 360.99C339.027 360.035 337.116 359.216 335.205 358.534C333.295 357.851 331.384 357.305 329.337 356.486L329.2 357.169L329.064 356.486C327.016 357.442 325.242 358.124 323.331 358.807C321.421 359.626 319.646 360.444 318.009 361.536C314.597 363.72 311.321 366.449 309.411 370.271L308.728 371.636L308.182 373.137C307.773 374.092 307.636 375.048 307.363 376.003C306.954 377.914 306.408 379.824 305.999 381.735C305.18 385.557 304.497 389.378 303.815 393.336C302.723 401.115 302.041 408.895 302.723 416.81C302.86 417.766 302.86 418.721 302.996 419.813C303.132 420.768 303.405 421.86 303.678 422.815C304.224 424.726 305.043 426.637 306.135 428.411C307.227 430.185 310.093 433.324 310.093 433.324L314.46 437.965C315.962 439.329 318.282 438.783 318.964 436.873L319.783 434.553C320.465 432.642 319.101 430.595 317.053 430.731L312.413 430.868C311.731 430.868 311.048 430.595 310.502 430.049C309.547 429.093 308.728 428.138 308.046 427.046C307.09 425.545 306.272 423.771 305.862 422.133C305.589 421.314 305.453 420.359 305.316 419.403C305.18 418.448 305.18 417.493 305.043 416.537C304.497 408.895 305.18 401.252 306.408 393.609C306.954 389.787 307.773 385.966 308.592 382.281C309.001 380.37 309.411 378.596 309.957 376.685C310.23 375.73 310.366 374.775 310.775 373.956L311.185 372.728L311.867 371.499C313.505 368.36 316.371 365.904 319.51 363.856C321.148 362.901 322.786 362.082 324.56 361.4C326.061 360.717 327.699 360.171 329.337 360.171C330.974 360.171 332.612 360.581 334.25 361.127C336.024 361.809 337.662 362.492 339.436 363.31C342.712 365.085 345.578 367.405 347.488 370.544L348.171 371.636L348.717 372.864C349.126 373.683 349.399 374.638 349.672 375.457C350.218 377.231 350.764 379.142 351.31 381.053C352.402 384.738 353.357 388.559 354.039 392.244C355.541 399.75 356.769 407.393 356.632 415.036C356.632 415.991 356.632 416.947 356.496 417.902C356.496 418.858 356.223 419.676 356.086 420.632C355.677 422.406 354.995 424.18 354.176 425.681C353.493 426.773 352.811 427.865 351.856 428.82C351.446 429.366 350.764 429.639 349.945 429.639L345.441 429.776C343.394 429.776 342.166 431.96 342.984 433.734L343.94 435.917C344.759 437.692 347.079 438.101 348.58 436.736L352.674 431.823C352.674 431.823 355.404 428.548 356.36 426.637C357.315 424.863 358.134 422.952 358.543 420.905C358.816 419.949 358.952 418.858 358.952 417.902C359.089 416.947 359.089 415.855 359.089 414.9C359.089 407.53 357.997 399.75 356.496 392.108Z" fill="#AAAAAA" style="fill:#AAAAAA;fill:color(display-p3 0.6667 0.6667 0.6667);fill-opacity:1;"/>
<defs>
<filter id="filter0_d_208_2" x="575.729" y="178.525" width="173.908" height="175.773" filterUnits="userSpaceOnUse" color-interpolation-filters="sRGB">
<feFlood flood-opacity="0" result="BackgroundImageFix"/>
<feColorMatrix in="SourceAlpha" type="matrix" values="0 0 0 0 0 0 0 0 0 0 0 0 0 0 0 0 0 0 127 0" result="hardAlpha"/>
<feOffset/>
<feGaussianBlur stdDeviation="5"/>
<feComposite in2="hardAlpha" operator="out"/>
<feColorMatrix type="matrix" values="0 0 0 0 0 0 0 0 0 0 0 0 0 0 0 0 0 0 0.25 0"/>
<feBlend mode="normal" in2="BackgroundImageFix" result="effect1_dropShadow_208_2"/>
<feBlend mode="normal" in="SourceGraphic" in2="effect1_dropShadow_208_2" result="shape"/>
</filter>
<filter id="filter1_d_208_2" x="0.685059" y="0.706726" width="285.115" height="285.115" filterUnits="userSpaceOnUse" color-interpolation-filters="sRGB">
<feFlood flood-opacity="0" result="BackgroundImageFix"/>
<feColorMatrix in="SourceAlpha" type="matrix" values="0 0 0 0 0 0 0 0 0 0 0 0 0 0 0 0 0 0 127 0" result="hardAlpha"/>
<feOffset/>
<feGaussianBlur stdDeviation="8"/>
<feComposite in2="hardAlpha" operator="out"/>
<feColorMatrix type="matrix" values="0 0 0 0 0 0 0 0 0 0 0 0 0 0 0 0 0 0 0.25 0"/>
<feBlend mode="normal" in2="BackgroundImageFix" result="effect1_dropShadow_208_2"/>
<feBlend mode="normal" in="SourceGraphic" in2="effect1_dropShadow_208_2" result="shape"/>
</filter>
<filter id="filter2_d_208_2" x="290.685" y="0.706726" width="285.115" height="285.115" filterUnits="userSpaceOnUse" color-interpolation-filters="sRGB">
<feFlood flood-opacity="0" result="BackgroundImageFix"/>
<feColorMatrix in="SourceAlpha" type="matrix" values="0 0 0 0 0 0 0 0 0 0 0 0 0 0 0 0 0 0 127 0" result="hardAlpha"/>
<feOffset/>
<feGaussianBlur stdDeviation="8"/>
<feComposite in2="hardAlpha" operator="out"/>
<feColorMatrix type="matrix" values="0 0 0 0 0 0 0 0 0 0 0 0 0 0 0 0 0 0 0.25 0"/>
<feBlend mode="normal" in2="BackgroundImageFix" result="effect1_dropShadow_208_2"/>
<feBlend mode="normal" in="SourceGraphic" in2="effect1_dropShadow_208_2" result="shape"/>
</filter>
<filter id="filter3_d_208_2" x="0.685059" y="285.471" width="285.115" height="285.115" filterUnits="userSpaceOnUse" color-interpolation-filters="sRGB">
<feFlood flood-opacity="0" result="BackgroundImageFix"/>
<feColorMatrix in="SourceAlpha" type="matrix" values="0 0 0 0 0 0 0 0 0 0 0 0 0 0 0 0 0 0 127 0" result="hardAlpha"/>
<feOffset/>
<feGaussianBlur stdDeviation="8"/>
<feComposite in2="hardAlpha" operator="out"/>
<feColorMatrix type="matrix" values="0 0 0 0 0 0 0 0 0 0 0 0 0 0 0 0 0 0 0.25 0"/>
<feBlend mode="normal" in2="BackgroundImageFix" result="effect1_dropShadow_208_2"/>
<feBlend mode="normal" in="SourceGraphic" in2="effect1_dropShadow_208_2" result="shape"/>
</filter>
<filter id="filter4_d_208_2" x="290.685" y="285.471" width="285.115" height="285.115" filterUnits="userSpaceOnUse" color-interpolation-filters="sRGB">
<feFlood flood-opacity="0" result="BackgroundImageFix"/>
<feColorMatrix in="SourceAlpha" type="matrix" values="0 0 0 0 0 0 0 0 0 0 0 0 0 0 0 0 0 0 127 0" result="hardAlpha"/>
<feOffset/>
<feGaussianBlur stdDeviation="8"/>
<feComposite in2="hardAlpha" operator="out"/>
<feColorMatrix type="matrix" values="0 0 0 0 0 0 0 0 0 0 0 0 0 0 0 0 0 0 0.25 0"/>
<feBlend mode="normal" in2="BackgroundImageFix" result="effect1_dropShadow_208_2"/>
<feBlend mode="normal" in="SourceGraphic" in2="effect1_dropShadow_208_2" result="shape"/>
</filter>
</defs>
</svg>
