<svg width="994" height="1000" viewBox="0 0 994 1000" fill="none" xmlns="http://www.w3.org/2000/svg">
<g clip-path="url(#clip0_497_533)">
<path d="M617.727 500.991C712.435 500.991 799.378 500.117 886.247 501.572C913.428 502.009 917.384 522.015 912.997 545.948C889.77 673.036 829.581 778.736 736.958 867.195C674.458 925.86 599.901 969.805 518.633 995.883C505.245 1000.97 490.554 1001.36 476.923 996.974C358.744 960.095 255.309 885.972 181.711 785.427C108.114 684.88 68.2072 563.174 67.8154 438.066C67.8154 394.417 68.3188 350.77 67.8154 307.123C67.8154 278.607 78.3146 265.366 108.23 265.656C214.804 266.529 321.353 266.529 427.878 265.656C450.603 265.656 459.161 272.203 459.305 296.501C459.881 370.703 413.28 423.225 339.499 427.444C314.474 428.825 289.162 428.536 264.135 428.172C240.764 428.172 236.951 439.085 246.3 457.778C252.344 471.103 262.155 482.319 274.491 490.009C286.829 497.701 301.141 501.521 315.623 500.991C349.136 500.991 382.646 500.991 416.3 500.991C518.56 499.827 584.144 547.621 614.132 645.756C615.856 651.503 617.222 657.466 619.381 663.068C626.571 681.983 640.954 687.511 659.725 684.893C680.867 681.982 687.552 666.852 686.762 648.519C685.179 609.746 668.064 576.356 647.715 544.566C639.732 531.98 631.174 520.415 617.727 500.991Z" fill="white" style="fill:white;fill-opacity:1;"/>
<path d="M532.224 211.896C532.224 155.008 532.797 98.0484 532.224 41.161C531.792 9.44371 546.605 -2.48647 576.522 0.423371C602.698 3.11498 628.945 5.15188 655.121 7.69798C681.296 10.2441 692.948 25.3025 692.875 51.3457C692.875 162.89 692.875 274.288 692.875 385.541C692.875 415.657 678.996 429.771 648.289 427.953C623.264 426.424 597.951 426.861 572.924 427.953C544.16 428.898 531.648 415.439 532.007 386.486C532.655 328.29 532.007 270.092 532.007 211.896H532.224Z" fill="white" style="fill:white;fill-opacity:1;"/>
<path d="M924.143 245.214C924.143 287.553 924.143 329.963 924.143 372.373C924.143 421.551 918.319 427.369 871.216 427.443C847.269 427.443 823.322 427.443 799.305 427.443C775.285 427.443 764.57 417.112 764.714 392.088C765.29 285.394 765.29 178.7 764.714 72.0054C764.714 40.5064 778.593 30.5401 807.286 36.4326L810.81 37.2336C923.999 60.0758 923.999 60.0754 923.999 176.106V245.214H924.143Z" fill="white" style="fill:white;fill-opacity:1;"/>
<path d="M458.513 98.1213C459.664 202.439 465.705 191.236 366.107 191.818C300.523 191.818 300.091 191.381 299.372 125.546C299.009 120.703 299.009 115.839 299.372 110.997C303.472 79.425 284.271 37.4505 312.964 18.3182C346.187 -3.94206 391.204 1.00477 431.834 1.15027C448.734 1.15027 458.225 11.7709 458.442 29.0846C458.73 52.145 458.513 75.1336 458.513 98.1213Z" fill="white" style="fill:white;fill-opacity:1;"/>
<path d="M147.638 192.474C64.5079 192.474 65.5151 192.474 67.3849 107.797C67.9602 80.0083 78.6744 65.5322 104.419 58.985C130.163 52.4379 156.987 43.053 183.522 36.5059C211.568 29.2314 227.461 40.6526 227.39 71.2787C227.39 95.4303 227.39 119.582 227.39 144.025C226.885 186.145 220.197 192.619 179.926 192.837L147.638 192.474Z" fill="white" style="fill:white;fill-opacity:1;"/>
</g>
<defs>
<clipPath id="clip0_497_533">
<rect width="993.049" height="1000" fill="white" style="fill:white;fill-opacity:1;"/>
</clipPath>
</defs>
</svg>
