<svg width="1000" height="1000" viewBox="0 0 1000 1000" fill="none" xmlns="http://www.w3.org/2000/svg">
<path d="M623.746 500.99C719.64 500.99 807.671 500.117 895.629 501.572C923.152 502.008 927.156 522.013 922.715 545.947C899.196 673.034 838.252 778.734 744.47 867.194C681.189 925.859 605.698 969.805 523.411 995.881C509.855 1000.97 494.98 1001.35 481.179 996.973C361.52 960.093 256.789 885.972 182.27 785.426C107.751 684.881 67.345 563.173 66.9484 438.065C66.9484 394.417 67.4581 350.769 66.9484 307.122C66.9484 278.605 77.579 265.365 107.869 265.656C215.777 266.529 323.661 266.529 431.521 265.656C454.529 265.656 463.195 272.203 463.341 296.5C463.923 370.701 416.74 423.224 342.035 427.443C316.696 428.825 291.066 428.535 265.727 428.171C242.063 428.171 238.203 439.083 247.669 457.778C253.787 471.103 263.72 482.319 276.213 490.009C288.705 497.699 303.197 501.521 317.86 500.99C351.791 500.99 385.722 500.99 419.798 500.99C523.337 499.826 589.743 547.62 620.105 645.754C621.853 651.501 623.236 657.466 625.421 663.068C632.702 681.982 647.265 687.51 666.269 684.892C687.676 681.982 694.447 666.851 693.646 648.519C692.044 609.745 674.715 576.355 654.109 544.565C646.027 531.98 637.362 520.413 623.746 500.99Z" fill="#27AE60" style="fill:#27AE60;fill:color(display-p3 0.1529 0.6824 0.3765);fill-opacity:1;"/>
<path d="M537.171 211.896C537.171 155.008 537.754 98.0484 537.171 41.161C536.734 9.44371 551.734 -2.48647 582.024 0.423372C608.528 3.11498 635.105 5.15187 661.609 7.69798C688.112 10.2441 699.908 25.3025 699.835 51.3456C699.835 162.89 699.835 274.288 699.835 385.541C699.835 415.658 685.782 429.771 654.691 427.952C629.352 426.425 603.722 426.861 578.384 427.952C549.258 428.898 536.59 415.439 536.954 386.486C537.609 328.29 536.954 270.093 536.954 211.896H537.171Z" fill="#27AE60" style="fill:#27AE60;fill:color(display-p3 0.1529 0.6824 0.3765);fill-opacity:1;"/>
<path d="M934 245.214C934 287.553 934 329.963 934 372.374C934 421.551 928.102 427.37 880.41 427.443C856.163 427.443 831.917 427.443 807.597 427.443C783.278 427.443 772.429 417.113 772.575 392.088C773.158 285.394 773.158 178.7 772.575 72.0055C772.575 40.5065 786.627 30.5402 815.68 36.4326L819.247 37.2336C933.854 60.0759 933.855 60.0756 933.855 176.106V245.214H934Z" fill="#27AE60" style="fill:#27AE60;fill:color(display-p3 0.1529 0.6824 0.3765);fill-opacity:1;"/>
<path d="M462.539 98.1217C463.704 202.44 469.82 191.237 368.975 191.819C302.57 191.819 302.133 191.381 301.405 125.546C301.037 120.703 301.037 115.84 301.405 110.997C305.555 79.4252 286.114 37.4508 315.166 18.3186C348.806 -3.94174 394.387 1.0051 435.526 1.1506C452.637 1.1506 462.248 11.7713 462.466 29.0848C462.757 52.1454 462.539 75.1339 462.539 98.1217Z" fill="#27AE60" style="fill:#27AE60;fill:color(display-p3 0.1529 0.6824 0.3765);fill-opacity:1;"/>
<path d="M147.771 192.474C63.5993 192.474 64.6193 192.474 66.5124 107.797C67.0949 80.0083 77.9433 65.5321 104.01 58.9849C130.077 52.4378 157.236 43.0529 184.104 36.5057C212.501 29.2311 228.593 40.6525 228.52 71.2786C228.52 95.4303 228.52 119.582 228.52 144.025C228.011 186.145 221.238 192.619 180.463 192.837L147.771 192.474Z" fill="#27AE60" style="fill:#27AE60;fill:color(display-p3 0.1529 0.6824 0.3765);fill-opacity:1;"/>
</svg>
