<svg width="89" height="89" viewBox="0 0 89 89" fill="none" xmlns="http://www.w3.org/2000/svg">
<g id="Group 297">
<circle id="Ellipse 4" opacity="0.3" cx="44.4974" cy="44.7039" r="44.1003" fill="white" style="fill:white;fill-opacity:1;"/>
<path id="Vector" d="M44.4974 43.4222C42.7978 43.4222 41.1678 42.747 39.966 41.5452C38.7642 40.3434 38.089 38.7134 38.089 37.0138C38.089 35.3142 38.7642 33.6842 39.966 32.4824C41.1678 31.2806 42.7978 30.6054 44.4974 30.6054C46.1971 30.6054 47.8271 31.2806 49.0289 32.4824C50.2307 33.6842 50.9058 35.3142 50.9058 37.0138C50.9058 37.8554 50.7401 38.6887 50.418 39.4662C50.096 40.2437 49.6239 40.9501 49.0289 41.5452C48.4338 42.1403 47.7273 42.6123 46.9498 42.9344C46.1723 43.2564 45.339 43.4222 44.4974 43.4222ZM44.4974 19.0703C39.7385 19.0703 35.1745 20.9607 31.8094 24.3258C28.4444 27.6909 26.5539 32.2549 26.5539 37.0138C26.5539 50.4715 44.4974 70.3375 44.4974 70.3375C44.4974 70.3375 62.441 50.4715 62.441 37.0138C62.441 32.2549 60.5505 27.6909 57.1854 24.3258C53.8204 20.9607 49.2564 19.0703 44.4974 19.0703Z" fill="white" style="fill:white;fill-opacity:1;"/>
</g>
</svg>
