<svg width="89" height="89" viewBox="0 0 89 89" fill="none" xmlns="http://www.w3.org/2000/svg">
<circle opacity="0.3" cx="44.8152" cy="44.2449" r="44.1003" fill="#27AE60" style="fill:#27AE60;fill:color(display-p3 0.1529 0.6824 0.3765);fill-opacity:1;"/>
<path d="M45.315 22.9268C46.683 21.5586 48.3071 20.4733 50.0945 19.7329C51.882 18.9924 53.7978 18.6113 55.7325 18.6113C57.6673 18.6113 59.5831 18.9924 61.3705 19.7329C63.158 20.4733 64.7821 21.5586 66.15 22.9268C67.5182 24.2948 68.6035 25.9189 69.3439 27.7063C70.0844 29.4938 70.4655 31.4096 70.4655 33.3443C70.4655 35.279 70.0844 37.1948 69.3439 38.9823C68.6035 40.7697 67.5182 42.3938 66.15 43.7618L54.0338 55.878L54.0168 55.861L44.3146 65.5632C42.9466 66.9313 41.3225 68.0166 39.535 68.7571C37.7476 69.4975 35.8318 69.8786 33.897 69.8786C31.9623 69.8786 30.0465 69.4975 28.259 68.7571C26.4716 68.0166 24.8475 66.9313 23.4795 65.5632C22.1114 64.1952 21.0261 62.5711 20.2856 60.7836C19.5452 58.9962 19.1641 57.0804 19.1641 55.1456C19.1641 53.2109 19.5452 51.2951 20.2856 49.5076C21.0261 47.7202 22.1114 46.0961 23.4795 44.7281L35.5957 32.6102L35.6128 32.6273L45.315 22.9268ZM51.601 53.4469L35.594 37.44L25.8918 47.1421C24.8406 48.1931 24.0068 49.4408 23.4378 50.8141C22.8689 52.1873 22.5761 53.6592 22.5761 55.1456C22.5761 56.6321 22.8689 58.104 23.4378 59.4772C24.0068 60.8505 24.8406 62.0982 25.8918 63.1491C26.9428 64.2003 28.1905 65.0342 29.5638 65.6031C30.937 66.1721 32.4089 66.4649 33.8953 66.4649C35.3818 66.4649 36.8536 66.1721 38.2269 65.6031C39.6002 65.0342 40.8479 64.2003 41.8988 63.1491L51.601 53.4469ZM65.2589 33.976C65.2589 33.0704 64.8991 32.2019 64.2588 31.5616C63.6185 30.9213 62.75 30.5615 61.8444 30.5615C60.9388 30.5615 60.0703 30.9213 59.43 31.5616C58.7897 32.2019 58.4299 33.0704 58.4299 33.976C58.4299 34.8815 58.7897 35.75 59.43 36.3904C60.0703 37.0307 60.9388 37.3904 61.8444 37.3904C62.75 37.3904 63.6185 37.0307 64.2588 36.3904C64.8991 35.75 65.2589 34.8815 65.2589 33.976Z" fill="#27AE60" style="fill:#27AE60;fill:color(display-p3 0.1529 0.6824 0.3765);fill-opacity:1;"/>
</svg>
