<svg width="89" height="90" viewBox="0 0 89 90" fill="none" xmlns="http://www.w3.org/2000/svg">
<g id="Group 297">
<circle id="Ellipse 4" opacity="0.3" cx="44.1074" cy="44.9559" r="44.1003" fill="#27AE60" style="fill:#27AE60;fill:color(display-p3 0.1529 0.6824 0.3765);fill-opacity:1;"/>
<path id="Vector" d="M46.6707 19.4504V24.6284C56.796 25.8845 64.6143 34.4974 64.6143 44.9559C64.6143 53.1843 59.6926 60.3361 52.5152 63.6172L46.6707 57.7727V70.5895H59.4876L56.3603 67.4622C64.3836 63.0789 69.741 54.5941 69.741 44.9559C69.741 31.6777 59.6157 20.7321 46.6707 19.4504ZM41.544 19.3223C36.5455 19.8349 31.8032 21.7831 27.9069 24.9873L31.5469 28.6273C34.4566 26.3843 37.9036 24.9436 41.544 24.449V19.3223ZM24.1131 28.7554C20.9346 32.6518 18.9864 37.394 18.4737 42.3925H23.6005C24.0875 38.7526 25.523 35.292 27.7787 32.3954L24.1131 28.7554ZM28.7272 34.7024V39.8292H36.4173V42.3925H33.8539C31.0342 42.3925 28.7272 44.6996 28.7272 47.5193V55.2094H41.544V50.0826H33.8539V47.5193H36.4173C39.2626 47.5193 41.544 45.2379 41.544 42.3925V39.8292C41.544 38.4695 41.0039 37.1655 40.0424 36.204C39.081 35.2426 37.777 34.7024 36.4173 34.7024H28.7272ZM44.1074 34.7024V47.5193H51.7975V55.2094H56.9242V47.5193H59.4876V42.3925H56.9242V34.7024H51.7975V42.3925H49.2341V34.7024H44.1074ZM18.4737 47.5193C18.9864 52.5178 20.9602 57.26 24.1644 61.1564L27.8044 57.5164C25.5538 54.6085 24.1043 51.1617 23.6005 47.5193H18.4737ZM31.5725 61.2845L27.9069 64.9245C31.8016 68.1044 36.5425 70.0739 41.544 70.5895V65.4628C37.9083 64.9795 34.4668 63.5374 31.5725 61.2845Z" fill="#27AE60" style="fill:#27AE60;fill:color(display-p3 0.1529 0.6824 0.3765);fill-opacity:1;"/>
</g>
</svg>
