<svg width="54" height="54" viewBox="0 0 54 54" fill="none" xmlns="http://www.w3.org/2000/svg">
<path d="M26.9995 29.6734C34.3957 29.6734 40.3984 32.4783 40.3984 35.9263V36.3332C40.3984 38.5751 38.581 40.3926 36.3391 40.3926H17.6599C15.418 40.3926 13.6006 38.5751 13.6006 36.3332V35.9263C13.6006 32.4783 19.6033 29.6734 26.9995 29.6734ZM26.9995 13.5947C28.6579 13.5947 30.2483 14.2535 31.4209 15.4261C32.5936 16.5988 33.2523 18.1892 33.2523 19.8476C33.2523 21.5059 32.5936 23.0963 31.4209 24.269C30.2483 25.4416 28.6579 26.1004 26.9995 26.1004C25.3412 26.1004 23.7507 25.4416 22.5781 24.269C21.4055 23.0963 20.7467 21.5059 20.7467 19.8476C20.7467 18.1892 21.4055 16.5988 22.5781 15.4261C23.7507 14.2535 25.3412 13.5947 26.9995 13.5947Z" stroke="white" style="stroke:white;stroke-opacity:1;" stroke-width="2"/>
</svg>
