<svg width="54" height="55" viewBox="0 0 54 55" fill="none" xmlns="http://www.w3.org/2000/svg">
<path d="M14.333 13.3223C13.7807 13.3223 13.333 13.77 13.333 14.3223C13.333 14.8746 13.7807 15.3223 14.333 15.3223V13.3223ZM17.5383 14.3223L18.4911 14.0187C18.359 13.6039 17.9736 13.3223 17.5383 13.3223V14.3223ZM23.1539 31.9512L22.2011 32.2547C22.3332 32.6695 22.7185 32.9512 23.1539 32.9512V31.9512ZM35.9685 32.9512C36.5208 32.9512 36.9685 32.5035 36.9685 31.9512C36.9685 31.3989 36.5208 30.9512 35.9685 30.9512V32.9512ZM21.9034 27.9446L20.9512 28.2499C21.0839 28.6638 21.4688 28.9446 21.9034 28.9446V27.9446ZM18.8199 18.3288V17.3288C18.5005 17.3288 18.2003 17.4814 18.0121 17.7394C17.8238 17.9975 17.7702 18.33 17.8677 18.6341L18.8199 18.3288ZM38.8641 18.3288V19.3288L38.8653 19.3288L38.8641 18.3288ZM39.6253 19.3833L40.574 19.6996L40.5741 19.6993L39.6253 19.3833ZM36.9537 27.3965L36.0051 27.0802L36.005 27.0805L36.9537 27.3965ZM36.1941 27.9446V28.9446H36.1948L36.1941 27.9446ZM26.1539 38.3617C26.1539 39.1371 25.5254 39.7656 24.75 39.7656V41.7656C26.6299 41.7656 28.1539 40.2416 28.1539 38.3617H26.1539ZM24.75 39.7656C23.9746 39.7656 23.346 39.1371 23.346 38.3617H21.346C21.346 40.2416 22.87 41.7656 24.75 41.7656V39.7656ZM23.346 38.3617C23.346 37.5863 23.9746 36.9577 24.75 36.9577V34.9577C22.87 34.9577 21.346 36.4817 21.346 38.3617H23.346ZM24.75 36.9577C25.5254 36.9577 26.1539 37.5863 26.1539 38.3617H28.1539C28.1539 36.4817 26.6299 34.9577 24.75 34.9577V36.9577ZM37.3724 38.3617C37.3724 39.1371 36.7438 39.7656 35.9684 39.7656V41.7656C37.8484 41.7656 39.3724 40.2416 39.3724 38.3617H37.3724ZM35.9684 39.7656C35.193 39.7656 34.5645 39.1371 34.5645 38.3617H32.5645C32.5645 40.2416 34.0885 41.7656 35.9684 41.7656V39.7656ZM34.5645 38.3617C34.5645 37.5863 35.193 36.9577 35.9684 36.9577V34.9577C34.0885 34.9577 32.5645 36.4817 32.5645 38.3617H34.5645ZM35.9684 36.9577C36.7438 36.9577 37.3724 37.5863 37.3724 38.3617H39.3724C39.3724 36.4817 37.8484 34.9577 35.9684 34.9577V36.9577ZM14.333 15.3223H17.5383V13.3223H14.333V15.3223ZM16.5854 14.6258L22.2011 32.2547L24.1067 31.6477L18.4911 14.0187L16.5854 14.6258ZM23.1539 32.9512H35.9685V30.9512H23.1539V32.9512ZM22.8556 27.6392L19.7722 18.0234L17.8677 18.6341L20.9512 28.2499L22.8556 27.6392ZM18.8199 19.3288H38.8641V17.3288H18.8199V19.3288ZM38.8653 19.3288C38.8338 19.3288 38.8027 19.3214 38.7747 19.3071L39.6843 17.5259C39.43 17.396 39.1484 17.3284 38.8628 17.3288L38.8653 19.3288ZM38.7747 19.3071C38.7466 19.2927 38.7224 19.2719 38.704 19.2464L40.3256 18.0758C40.1584 17.8442 39.9386 17.6557 39.6843 17.5259L38.7747 19.3071ZM38.704 19.2464C38.6855 19.2209 38.6734 19.1913 38.6687 19.1602L40.6456 18.8576C40.6024 18.5753 40.4927 18.3073 40.3256 18.0758L38.704 19.2464ZM38.6687 19.1602C38.6639 19.129 38.6666 19.0972 38.6765 19.0673L40.5741 19.6993C40.6643 19.4284 40.6888 19.1399 40.6456 18.8576L38.6687 19.1602ZM38.6766 19.067L36.0051 27.0802L37.9024 27.7128L40.574 19.6996L38.6766 19.067ZM36.005 27.0805C36.0181 27.0409 36.0434 27.0065 36.0772 26.9821L37.2474 28.604C37.5539 28.3829 37.7831 28.071 37.9025 27.7125L36.005 27.0805ZM36.0772 26.9821C36.111 26.9578 36.1516 26.9446 36.1933 26.9446L36.1948 28.9446C36.5727 28.9443 36.941 28.8252 37.2474 28.604L36.0772 26.9821ZM36.1941 26.9446H21.9034V28.9446H36.1941V26.9446Z" fill="white" style="fill:white;fill-opacity:1;"/>
</svg>
