<svg width="101" height="34" viewBox="0 0 101 34" fill="none" xmlns="http://www.w3.org/2000/svg">
<g clip-path="url(#clip0_638_1246)">
<path d="M-104.849 9.31462C-104.849 6.40101 -102.487 4.03906 -99.5731 4.03906H93.0631C97.0931 4.03906 99.6349 8.37487 97.6665 11.8914L87.3863 30.2567C86.4534 31.9232 84.6927 32.9554 82.7828 32.9554H-99.5731C-102.487 32.9554 -104.849 30.5935 -104.849 27.6799V9.31462Z" fill="#861919" style="fill:#861919;fill:color(display-p3 0.5255 0.0980 0.0980);fill-opacity:1;"/>
<path d="M-106.849 5.31462C-106.849 2.40101 -104.487 0.0390625 -101.573 0.0390625H91.0631C95.0931 0.0390625 97.6349 4.37487 95.6665 7.89144L85.3863 26.2567C84.4534 27.9232 82.6927 28.9554 80.7828 28.9554H-101.573C-104.487 28.9554 -106.849 26.5935 -106.849 23.6799V5.31462Z" fill="#E32E2E" style="fill:#E32E2E;fill:color(display-p3 0.8902 0.1804 0.1804);fill-opacity:1;"/>
</g>
<defs>
<clipPath id="clip0_638_1246">
<rect x="0.736816" y="0.0761719" width="99.3094" height="33.1031" rx="8.27578" fill="white" style="fill:white;fill-opacity:1;"/>
</clipPath>
</defs>
</svg>
