<svg width="1453" height="341" viewBox="0 0 1453 341" fill="none" xmlns="http://www.w3.org/2000/svg">
<g clip-path="url(#clip0_689_1046)">
<rect width="1452.7" height="340.476" transform="translate(0.452148 0.395508)" fill="#27AE60" style="fill:#27AE60;fill:color(display-p3 0.1529 0.6824 0.3765);fill-opacity:1;"/>
<path d="M572.9 282.532L561.385 289.879L559.3 299.309L545.154 296.183C539.731 294.985 535.247 298.939 533.639 303.529L518.502 349.641C516.894 354.231 518.964 359.635 525.849 361.156L601.295 377.83C608.179 379.352 612.334 375.324 612.81 370.484L618.516 322.288C618.992 317.447 616.168 311.877 611.169 310.773L597.023 307.646L599.108 298.216L591.761 286.701L572.9 282.532ZM570.815 291.963L589.677 296.131L587.593 305.562L568.731 301.394L570.815 291.963ZM570.32 316.582L579.751 318.666L576.624 332.812L590.77 335.939L588.686 345.369L574.54 342.243L571.414 356.389L561.983 354.305L565.109 340.159L550.963 337.032L553.047 327.602L567.194 330.728L570.32 316.582Z" fill="#1D8E4D" style="fill:#1D8E4D;fill:color(display-p3 0.1140 0.5583 0.3016);fill-opacity:1;"/>
<path d="M-1.03771 175.973L10.9085 175.213L16.5015 168.86L26.0313 177.249C29.6844 180.465 34.7998 179.33 37.9775 176.489L69.1193 147.52C72.297 144.679 72.997 139.656 68.3592 135.573L17.5338 90.8291C12.8959 86.7462 8.00288 88.0771 5.58755 91.5893L-19.2011 126.152C-21.6164 129.664 -21.8081 135.134 -18.4409 138.098L-8.91116 146.487L-14.5042 152.841L-13.7441 164.787L-1.03771 175.973ZM4.55533 169.62L-8.15103 158.434L-2.55799 152.081L10.1484 163.267L4.55533 169.62ZM15.3613 150.94L9.00816 145.347L17.3977 135.817L7.86796 127.428L13.461 121.075L22.9908 129.464L31.3803 119.935L37.7335 125.528L29.3439 135.057L38.8737 143.447L33.2807 149.8L23.7509 141.411L15.3613 150.94Z" fill="#1D8E4D" style="fill:#1D8E4D;fill:color(display-p3 0.1140 0.5583 0.3016);fill-opacity:1;"/>
<path d="M1100.29 109.703L1114.35 100.431L1116.74 88.7641L1134.24 92.3563C1140.95 93.7333 1146.41 88.7739 1148.31 83.0842L1166.11 25.9471C1168.01 20.2574 1165.36 13.6336 1156.84 11.8854L1063.51 -7.27291C1054.99 -9.02111 1049.94 -3.97794 1049.44 1.99919L1043.3 61.5311C1042.81 67.5082 1046.39 74.3235 1052.58 75.5927L1070.08 79.1849L1067.68 90.8518L1076.95 104.914L1100.29 109.703ZM1102.68 98.0362L1079.35 93.2466L1081.74 81.5797L1105.08 86.3693L1102.68 98.0362ZM1102.84 67.6716L1091.17 65.2768L1094.76 47.7764L1077.26 44.1843L1079.65 32.5174L1097.16 36.1095L1100.75 18.6092L1112.41 21.004L1108.82 38.5043L1126.32 42.0965L1123.93 53.7634L1106.43 50.1712L1102.84 67.6716Z" fill="#1D8E4D" style="fill:#1D8E4D;fill:color(display-p3 0.1140 0.5583 0.3016);fill-opacity:1;"/>
<path d="M1180.64 246.187L1169.45 258.774L1170.15 270.663L1152.31 271.709C1145.47 272.109 1141.48 278.309 1141.12 284.295L1138.66 344.093C1138.29 350.079 1142.57 355.794 1151.24 355.285L1246.36 349.71C1255.04 349.201 1258.62 343.026 1257.56 337.123L1248.13 278.023C1247.06 272.12 1241.84 266.461 1235.54 266.83L1217.7 267.875L1217.01 255.986L1204.42 244.793L1180.64 246.187ZM1181.34 258.077L1205.12 256.683L1205.81 268.572L1182.04 269.966L1181.34 258.077ZM1189.03 287.452L1200.92 286.755L1201.96 304.59L1219.8 303.545L1220.49 315.434L1202.66 316.48L1203.7 334.314L1191.81 335.011L1190.77 317.177L1172.93 318.222L1172.24 306.332L1190.07 305.287L1189.03 287.452Z" fill="#1D8E4D" style="fill:#1D8E4D;fill:color(display-p3 0.1140 0.5583 0.3016);fill-opacity:1;"/>
<path d="M425.735 86.7576L440.58 88.1551L448.701 81.4313L458.787 93.6132C462.653 98.2829 469.168 97.8853 473.632 95.0107L517.6 65.4524C522.064 62.5778 523.906 56.5359 518.998 50.6073L465.207 -14.3627C460.299 -20.2912 454.02 -19.6093 450.362 -15.7602L413.118 21.9194C409.461 25.7685 408.157 32.4602 411.721 36.7644L421.806 48.9463L413.685 55.6701L412.288 70.5151L425.735 86.7576ZM433.856 80.0338L420.409 63.7913L428.53 57.0676L441.978 73.3101L433.856 80.0338ZM450.798 59.1638L444.074 51.0425L456.256 40.9568L446.17 28.775L454.291 22.0512L464.377 34.2331L476.559 24.1474L483.283 32.2686L471.101 42.3543L481.186 54.5362L473.065 61.26L462.979 49.0781L450.798 59.1638Z" fill="#1D8E4D" style="fill:#1D8E4D;fill:color(display-p3 0.1140 0.5583 0.3016);fill-opacity:1;"/>
<path d="M291.784 277.262L278.252 276.258L270.983 282.522L261.587 271.62C257.985 267.441 252.064 267.92 248.054 270.616L208.581 298.303C204.571 301 203.004 306.53 207.577 311.836L257.691 369.982C262.264 375.288 267.966 374.554 271.224 370.986L304.433 336.03C307.691 332.462 308.757 326.35 305.437 322.498L296.041 311.595L303.309 305.331L304.313 291.799L291.784 277.262ZM284.516 283.526L297.045 298.063L289.776 304.327L277.248 289.791L284.516 283.526ZM269.477 302.821L275.742 310.089L264.839 319.486L274.236 330.388L266.968 336.653L257.571 325.75L246.669 335.147L240.404 327.878L251.307 318.482L241.91 307.58L249.179 301.315L258.575 312.218L269.477 302.821Z" fill="#1D8E4D" style="fill:#1D8E4D;fill:color(display-p3 0.1140 0.5583 0.3016);fill-opacity:1;"/>
<path d="M1372.98 -5.09533L1366.92 5.24233L1369.05 13.4441L1356.75 16.6479C1352.03 17.876 1350.11 22.7565 1350.68 26.9856L1357.26 69.0625C1357.84 73.2915 1361.61 76.6876 1367.6 75.1284L1433.21 58.0415C1439.2 56.4824 1440.84 51.6766 1439.28 47.7039L1424.5 7.76282C1422.94 3.79007 1418.51 0.564875 1414.16 1.69688L1401.86 4.90068L1399.72 -3.30112L1389.39 -9.36706L1372.98 -5.09533ZM1375.12 3.10646L1391.52 -1.16526L1393.66 7.03654L1377.25 11.3083L1375.12 3.10646ZM1384.56 22.543L1392.76 20.4072L1395.96 32.7099L1408.27 29.5061L1410.4 37.7079L1398.1 40.9117L1401.3 53.2144L1393.1 55.3502L1389.9 43.0475L1377.6 46.2513L1375.46 38.0495L1387.76 34.8457L1384.56 22.543Z" fill="#1D8E4D" style="fill:#1D8E4D;fill:color(display-p3 0.1140 0.5583 0.3016);fill-opacity:1;"/>
<path d="M60.4637 5.25302C62.9447 6.14546 65.2256 7.51786 67.1762 9.29187C69.1268 11.0659 70.7088 13.2067 71.8319 15.5922C72.9551 17.9777 73.5973 20.561 73.722 23.1947C73.8467 25.8284 73.4514 28.4608 72.5587 30.9417C71.6662 33.4227 70.2938 35.7036 68.5198 37.6542C66.7458 39.6048 64.605 41.1868 62.2195 42.31C59.834 43.4331 57.2507 44.0754 54.617 44.2001C51.9833 44.3248 49.3509 43.9295 46.87 43.0367L24.8976 35.1316L24.9087 35.1006L7.31411 28.7705C4.8331 27.878 2.55218 26.5056 0.6016 24.7316C-1.34898 22.9576 -2.93101 20.8167 -4.05415 18.4313C-5.1773 16.0458 -5.81955 13.4625 -5.94425 10.8288C-6.06894 8.19512 -5.67363 5.56266 -4.78088 3.08176C-3.88844 0.600751 -2.51604 -1.68017 -0.742028 -3.63075C1.03198 -5.58133 3.17284 -7.16336 5.5583 -8.2865C7.94375 -9.40965 10.5271 -10.0519 13.1608 -10.1766C15.7945 -10.3013 18.4269 -9.90598 20.9078 -9.01323L42.8823 -1.10907L42.8712 -1.07811L60.4637 5.25302ZM26.4828 30.7207L36.9264 1.69255L19.3318 -4.63758C17.4258 -5.32359 15.4033 -5.6274 13.3799 -5.53166C11.3565 -5.43593 9.37173 -4.94252 7.53902 -4.07963C5.7063 -3.21673 4.06153 -2.00125 2.69863 -0.502601C1.33573 0.996046 0.281412 2.7485 -0.404114 4.65467C-1.09012 6.56067 -1.39393 8.58314 -1.2982 10.6066C-1.20246 12.63 -0.709054 14.6148 0.153842 16.4475C1.01674 18.2802 2.23222 19.925 3.73087 21.2879C5.22951 22.6508 6.98197 23.7051 8.88814 24.3906L26.4828 30.7207ZM58.4182 36.2571C59.5347 35.7314 60.3967 34.7837 60.8144 33.6225C61.2322 32.4613 61.1716 31.1816 60.6459 30.0651C60.1202 28.9486 59.1725 28.0866 58.0113 27.6688C56.85 27.251 55.5704 27.3117 54.4539 27.8374C53.3374 28.3631 52.4754 29.3108 52.0576 30.472C51.6398 31.6332 51.7004 32.9129 52.2261 34.0294C52.7518 35.1459 53.6995 36.0079 54.8608 36.4257C56.022 36.8435 57.3016 36.7828 58.4182 36.2571Z" fill="#1D8E4D" style="fill:#1D8E4D;fill:color(display-p3 0.1140 0.5583 0.3016);fill-opacity:1;"/>
<path d="M155.598 148.995C154.633 146.381 154.192 143.601 154.301 140.816C154.409 138.031 155.066 135.294 156.232 132.762C157.399 130.231 159.052 127.954 161.099 126.061C163.145 124.169 165.545 122.698 168.16 121.733C170.775 120.767 173.554 120.326 176.339 120.435C179.125 120.544 181.861 121.2 184.393 122.366C186.924 123.533 189.201 125.187 191.094 127.233C192.986 129.28 194.457 131.679 195.422 134.294L203.972 157.453L203.939 157.465L210.785 176.01C211.751 178.624 212.192 181.404 212.083 184.189C211.974 186.974 211.318 189.711 210.151 192.243C208.985 194.774 207.331 197.051 205.285 198.944C203.238 200.836 200.839 202.307 198.224 203.272C195.609 204.238 192.83 204.679 190.044 204.57C187.259 204.461 184.522 203.805 181.991 202.638C179.459 201.472 177.182 199.818 175.29 197.772C173.397 195.725 171.926 193.326 170.961 190.711L162.41 167.551L162.442 167.539L155.598 148.995ZM199.324 159.17L168.728 170.465L175.574 189.01C176.316 191.019 177.446 192.862 178.9 194.435C180.354 196.007 182.103 197.278 184.048 198.174C185.993 199.07 188.095 199.574 190.235 199.658C192.375 199.741 194.511 199.402 196.52 198.66C198.529 197.919 200.372 196.789 201.944 195.335C203.517 193.881 204.787 192.132 205.683 190.187C206.58 188.242 207.084 186.139 207.167 183.999C207.251 181.859 206.912 179.724 206.17 177.715L199.324 159.17ZM182.08 129.56C180.895 129.014 179.542 128.961 178.318 129.413C177.094 129.865 176.1 130.785 175.554 131.97C175.008 133.154 174.955 134.508 175.407 135.732C175.859 136.956 176.778 137.95 177.963 138.496C179.148 139.042 180.501 139.095 181.725 138.643C182.949 138.191 183.944 137.272 184.49 136.087C185.036 134.902 185.088 133.548 184.637 132.324C184.185 131.1 183.265 130.106 182.08 129.56Z" fill="#1D8E4D" style="fill:#1D8E4D;fill:color(display-p3 0.1140 0.5583 0.3016);fill-opacity:1;"/>
<path d="M1254.64 128.789C1253.44 125.536 1252.89 122.077 1253.03 118.612C1253.16 115.146 1253.98 111.741 1255.43 108.591C1256.88 105.441 1258.94 102.608 1261.49 100.253C1264.03 97.8987 1267.02 96.0686 1270.27 94.8677C1273.53 93.6664 1276.98 93.1178 1280.45 93.2531C1283.91 93.3884 1287.32 94.205 1290.47 95.6564C1293.62 97.1077 1296.45 99.1653 1298.81 101.712C1301.16 104.258 1302.99 107.243 1304.19 110.497L1314.83 139.312L1314.79 139.327L1323.31 162.401C1324.51 165.654 1325.06 169.113 1324.92 172.578C1324.79 176.044 1323.97 179.449 1322.52 182.599C1321.07 185.749 1319.01 188.582 1316.46 190.937C1313.92 193.291 1310.93 195.121 1307.68 196.322C1304.43 197.524 1300.97 198.072 1297.5 197.937C1294.04 197.802 1290.63 196.985 1287.48 195.534C1284.33 194.082 1281.5 192.025 1279.14 189.478C1276.79 186.932 1274.96 183.947 1273.76 180.693L1263.12 151.877L1263.16 151.862L1254.64 128.789ZM1309.05 141.449L1270.98 155.503L1279.5 178.577C1280.42 181.076 1281.83 183.37 1283.63 185.326C1285.44 187.283 1287.62 188.864 1290.04 189.979C1292.46 191.094 1295.08 191.721 1297.74 191.825C1300.4 191.929 1303.06 191.507 1305.56 190.584C1308.06 189.661 1310.35 188.256 1312.31 186.447C1314.26 184.638 1315.85 182.461 1316.96 180.041C1318.08 177.621 1318.7 175.005 1318.81 172.342C1318.91 169.68 1318.49 167.023 1317.57 164.523L1309.05 141.449ZM1287.59 104.607C1286.12 103.928 1284.43 103.862 1282.91 104.424C1281.39 104.986 1280.15 106.13 1279.47 107.605C1278.79 109.079 1278.73 110.763 1279.29 112.286C1279.85 113.809 1281 115.046 1282.47 115.725C1283.94 116.404 1285.63 116.47 1287.15 115.908C1288.67 115.346 1289.91 114.202 1290.59 112.727C1291.27 111.253 1291.34 109.569 1290.77 108.046C1290.21 106.524 1289.07 105.286 1287.59 104.607Z" fill="#1D8E4D" style="fill:#1D8E4D;fill:color(display-p3 0.1140 0.5583 0.3016);fill-opacity:1;"/>
<path d="M580.808 15.4844C578.82 14.8663 576.973 13.8626 575.374 12.5307C573.774 11.1989 572.452 9.56492 571.484 7.72218C570.515 5.87943 569.919 3.86398 569.73 1.79093C569.541 -0.28212 569.761 -2.37217 570.38 -4.35987C570.998 -6.34765 572.002 -8.19419 573.334 -9.79406C574.665 -11.3939 576.299 -12.7158 578.142 -13.6841C579.985 -14.6524 582 -15.2483 584.073 -15.4377C586.146 -15.6271 588.236 -15.4063 590.224 -14.7878L607.828 -9.31195L607.821 -9.28715L621.917 -4.90226C623.905 -4.28409 625.752 -3.28042 627.352 -1.94856C628.952 -0.6167 630.273 1.01726 631.242 2.86C632.21 4.70275 632.806 6.71819 632.995 8.79124C633.185 10.8643 632.964 12.9543 632.345 14.942C631.727 16.9298 630.724 18.7764 629.392 20.3762C628.06 21.9761 626.426 23.2979 624.583 24.2663C622.74 25.2346 620.725 25.8305 618.652 26.0199C616.579 26.2093 614.489 25.9884 612.501 25.37L594.895 19.895L594.903 19.8702L580.808 15.4844ZM606.731 -5.77806L599.496 17.4793L613.593 21.8642C615.12 22.3394 616.726 22.5091 618.319 22.3637C619.911 22.2182 621.46 21.7605 622.875 21.0165C624.291 20.2725 625.547 19.257 626.57 18.0278C627.593 16.7986 628.364 15.3799 628.839 13.8527C629.314 12.3256 629.484 10.7198 629.338 9.12712C629.193 7.53441 628.735 5.98597 627.991 4.57021C627.247 3.15445 626.232 1.89912 625.002 0.875911C623.773 -0.147298 622.355 -0.918341 620.827 -1.39318L606.731 -5.77806ZM581.35 -9.04121C580.487 -8.58797 579.84 -7.81067 579.551 -6.88029C579.261 -5.94991 579.353 -4.94268 579.807 -4.08017C580.26 -3.21766 581.037 -2.57052 581.967 -2.28113C582.898 -1.99173 583.905 -2.08377 584.768 -2.53701C585.63 -2.99025 586.277 -3.76756 586.567 -4.69793C586.856 -5.62831 586.764 -6.63555 586.311 -7.49806C585.857 -8.36057 585.08 -9.0077 584.15 -9.2971C583.219 -9.5865 582.212 -9.49445 581.35 -9.04121Z" fill="#1D8E4D" style="fill:#1D8E4D;fill:color(display-p3 0.1140 0.5583 0.3016);fill-opacity:1;"/>
<path d="M351.854 21.1482C354.182 20.8775 356.541 21.0681 358.795 21.709C361.049 22.3498 363.155 23.4285 364.992 24.8832C366.829 26.338 368.362 28.1404 369.503 30.1876C370.643 32.2348 371.37 34.4866 371.64 36.8144C371.91 39.1423 371.72 41.5006 371.079 43.7547C370.438 46.0089 369.36 48.1148 367.905 49.9521C366.45 51.7893 364.648 53.3221 362.6 54.4627C360.553 55.6034 358.301 56.3296 355.974 56.5999L335.357 58.9954L335.354 58.9664L318.845 60.8846C316.517 61.1552 314.159 60.9646 311.905 60.3237C309.651 59.6829 307.545 58.6043 305.708 57.1495C303.87 55.6947 302.338 53.8923 301.197 51.8451C300.056 49.798 299.33 47.5461 299.06 45.2183C298.789 42.8905 298.98 40.5321 299.621 38.278C300.261 36.0238 301.34 33.918 302.795 32.0807C304.25 30.2434 306.052 28.7106 308.099 27.57C310.146 26.4293 312.398 25.7031 314.726 25.4328L335.344 23.0357L335.347 23.0647L351.854 21.1482ZM334.875 54.8575L331.71 27.6209L315.202 29.5391C313.413 29.7467 311.683 30.3045 310.11 31.1808C308.537 32.0571 307.153 33.2347 306.035 34.6462C304.917 36.0578 304.089 37.6757 303.596 39.4076C303.104 41.1394 302.958 42.9513 303.166 44.7397C303.373 46.5282 303.931 48.2583 304.807 49.8311C305.684 51.4039 306.861 52.7888 308.273 53.9064C309.684 55.0241 311.302 55.8528 313.034 56.3451C314.766 56.8374 316.578 56.9837 318.366 56.7757L334.875 54.8575ZM362.485 46.637C363.166 45.777 363.478 44.6818 363.351 43.5922C363.225 42.5027 362.67 41.508 361.81 40.8271C360.95 40.1462 359.855 39.8348 358.766 39.9614C357.676 40.088 356.681 40.6422 356.001 41.5022C355.32 42.3621 355.008 43.4573 355.135 44.5469C355.261 45.6365 355.816 46.6311 356.676 47.312C357.536 47.9929 358.631 48.3043 359.72 48.1777C360.81 48.0511 361.805 47.4969 362.485 46.637Z" fill="#1D8E4D" style="fill:#1D8E4D;fill:color(display-p3 0.1140 0.5583 0.3016);fill-opacity:1;"/>
<path d="M1268.14 29.7615C1270.47 29.4908 1272.82 29.6814 1275.08 30.3223C1277.33 30.9631 1279.44 32.0417 1281.28 33.4965C1283.11 34.9513 1284.65 36.7537 1285.79 38.8009C1286.93 40.8481 1287.65 43.0999 1287.92 45.4277C1288.19 47.7555 1288 50.1139 1287.36 52.368C1286.72 54.6222 1285.64 56.7281 1284.19 58.5653C1282.73 60.4026 1280.93 61.9354 1278.88 63.076C1276.84 64.2167 1274.58 64.9429 1272.26 65.2132L1251.64 67.6087L1251.64 67.5796L1235.13 69.4978C1232.8 69.7685 1230.44 69.5779 1228.19 68.937C1225.93 68.2962 1223.83 67.2175 1221.99 65.7628C1220.15 64.308 1218.62 62.5056 1217.48 60.4584C1216.34 58.4112 1215.61 56.1594 1215.34 53.8316C1215.07 51.5038 1215.26 49.1454 1215.9 46.8913C1216.54 44.6371 1217.62 42.5312 1219.08 40.6939C1220.53 38.8567 1222.34 37.3239 1224.38 36.1833C1226.43 35.0426 1228.68 34.3164 1231.01 34.0461L1251.63 31.649L1251.63 31.678L1268.14 29.7615ZM1251.16 63.4708L1247.99 36.2342L1231.48 38.1524C1229.7 38.3599 1227.97 38.9178 1226.39 39.7941C1224.82 40.6704 1223.44 41.848 1222.32 43.2595C1221.2 44.6711 1220.37 46.289 1219.88 48.0209C1219.39 49.7527 1219.24 51.5646 1219.45 53.353C1219.66 55.1415 1220.21 56.8715 1221.09 58.4444C1221.97 60.0172 1223.14 61.402 1224.56 62.5197C1225.97 63.6374 1227.59 64.4661 1229.32 64.9584C1231.05 65.4507 1232.86 65.597 1234.65 65.389L1251.16 63.4708ZM1278.77 55.2502C1279.45 54.3903 1279.76 53.2951 1279.63 52.2055C1279.51 51.1159 1278.95 50.1213 1278.09 49.4404C1277.23 48.7595 1276.14 48.448 1275.05 48.5746C1273.96 48.7012 1272.96 49.2555 1272.28 50.1154C1271.6 50.9754 1271.29 52.0706 1271.42 53.1602C1271.54 54.2497 1272.1 55.2444 1272.96 55.9253C1273.82 56.6062 1274.91 56.9176 1276 56.791C1277.09 56.6644 1278.09 56.1102 1278.77 55.2502Z" fill="#1D8E4D" style="fill:#1D8E4D;fill:color(display-p3 0.1140 0.5583 0.3016);fill-opacity:1;"/>
<path d="M424.498 254.6C426.547 252.551 428.978 250.926 431.654 249.818C434.33 248.709 437.199 248.139 440.095 248.139C442.992 248.139 445.86 248.709 448.536 249.818C451.213 250.926 453.644 252.551 455.692 254.6C457.741 256.648 459.366 259.079 460.474 261.756C461.583 264.432 462.153 267.3 462.153 270.197C462.153 273.093 461.583 275.962 460.474 278.638C459.366 281.314 457.741 283.745 455.692 285.794L437.552 303.934L437.527 303.908L423.001 318.434C420.952 320.483 418.521 322.107 415.845 323.216C413.169 324.325 410.3 324.895 407.404 324.895C404.507 324.895 401.639 324.325 398.963 323.216C396.286 322.107 393.855 320.483 391.807 318.434C389.758 316.386 388.133 313.954 387.025 311.278C385.916 308.602 385.346 305.734 385.346 302.837C385.346 299.941 385.916 297.072 387.025 294.396C388.133 291.72 389.758 289.288 391.807 287.24L409.947 269.098L409.972 269.123L424.498 254.6ZM433.91 300.294L409.944 276.329L395.418 290.855C393.845 292.428 392.596 294.296 391.744 296.352C390.893 298.408 390.454 300.612 390.454 302.837C390.454 305.063 390.893 307.266 391.744 309.322C392.596 311.378 393.845 313.246 395.418 314.82C396.992 316.394 398.86 317.642 400.916 318.494C402.972 319.346 405.176 319.784 407.401 319.784C409.627 319.784 411.83 319.346 413.886 318.494C415.942 317.642 417.81 316.394 419.384 314.82L433.91 300.294ZM454.358 271.142C454.358 269.787 453.819 268.486 452.861 267.528C451.902 266.569 450.602 266.03 449.246 266.03C447.89 266.03 446.59 266.569 445.631 267.528C444.672 268.486 444.134 269.787 444.134 271.142C444.134 272.498 444.672 273.798 445.631 274.757C446.59 275.716 447.89 276.254 449.246 276.254C450.602 276.254 451.902 275.716 452.861 274.757C453.819 273.798 454.358 272.498 454.358 271.142Z" fill="#1D8E4D" style="fill:#1D8E4D;fill:color(display-p3 0.1140 0.5583 0.3016);fill-opacity:1;"/>
<path d="M908.041 93.2034C905.799 94.1985 903.383 94.7422 900.93 94.8034C898.478 94.8646 896.038 94.4422 893.749 93.5603C891.46 92.6784 889.367 91.3542 887.59 89.6634C885.813 87.9726 884.386 85.9483 883.391 83.7061C882.396 81.464 881.852 79.0478 881.791 76.5956C881.73 74.1433 882.152 71.703 883.034 69.4141C883.916 67.1251 885.24 65.0322 886.931 63.255C888.622 61.4778 890.646 60.0511 892.888 59.0563L912.746 50.2447L912.758 50.2727L928.66 43.2167C930.902 42.2216 933.318 41.678 935.77 41.6167C938.222 41.5555 940.663 41.9779 942.952 42.8598C945.241 43.7417 947.333 45.0659 949.111 46.7567C950.888 48.4475 952.315 50.4718 953.309 52.7141C954.304 54.9562 954.848 57.3723 954.909 59.8246C954.971 62.2768 954.548 64.7171 953.666 67.0061C952.784 69.295 951.46 71.3879 949.769 73.1651C948.079 74.9423 946.054 76.369 943.812 77.3638L923.954 86.1774L923.941 86.1494L908.041 93.2034ZM914.516 54.2299L926.157 80.4642L942.058 73.4082C943.781 72.644 945.337 71.5479 946.636 70.1826C947.935 68.8172 948.952 67.2093 949.63 65.4507C950.307 63.6922 950.632 61.8173 950.585 59.9333C950.537 58.0493 950.12 56.193 949.355 54.4704C948.591 52.7477 947.495 51.1924 946.129 49.8933C944.764 48.5943 943.156 47.5769 941.398 46.8993C939.639 46.2218 937.764 45.8973 935.88 45.9444C933.996 45.9915 932.14 46.4093 930.417 47.1739L914.516 54.2299ZM889.482 71.0401C889.069 72.1115 889.099 73.3029 889.565 74.3524C890.03 75.4019 890.894 76.2233 891.965 76.6361C893.037 77.0489 894.228 77.0192 895.278 76.5535C896.327 76.0878 897.149 75.2243 897.561 74.1529C897.974 73.0816 897.944 71.8901 897.479 70.8406C897.013 69.7912 896.15 68.9697 895.078 68.5569C894.007 68.1441 892.815 68.1738 891.766 68.6395C890.716 69.1052 889.895 69.9687 889.482 71.0401Z" fill="#1D8E4D" style="fill:#1D8E4D;fill:color(display-p3 0.1140 0.5583 0.3016);fill-opacity:1;"/>
<path d="M1039.03 260.963C1037.81 258.834 1037.02 256.486 1036.71 254.053C1036.4 251.62 1036.57 249.15 1037.21 246.782C1037.85 244.415 1038.95 242.197 1040.45 240.256C1041.95 238.315 1043.82 236.689 1045.95 235.469C1048.08 234.25 1050.43 233.461 1052.86 233.149C1055.29 232.837 1057.76 233.007 1060.13 233.65C1062.5 234.293 1064.72 235.396 1066.66 236.895C1068.6 238.395 1070.22 240.263 1071.44 242.391L1082.24 261.241L1082.22 261.257L1090.86 276.351C1092.08 278.479 1092.87 280.827 1093.18 283.26C1093.5 285.693 1093.33 288.164 1092.68 290.531C1092.04 292.899 1090.94 295.116 1089.44 297.057C1087.94 298.998 1086.07 300.625 1083.94 301.844C1081.81 303.064 1079.47 303.852 1077.03 304.164C1074.6 304.477 1072.13 304.306 1069.76 303.664C1067.4 303.021 1065.18 301.918 1063.24 300.418C1061.3 298.918 1059.67 297.051 1058.45 294.922L1047.65 276.072L1047.67 276.056L1039.03 260.963ZM1078.46 263.41L1053.56 277.678L1062.21 292.773C1063.14 294.408 1064.39 295.843 1065.88 296.995C1067.37 298.148 1069.08 298.995 1070.9 299.489C1072.72 299.983 1074.61 300.113 1076.48 299.873C1078.35 299.633 1080.16 299.028 1081.79 298.091C1083.43 297.154 1084.86 295.904 1086.01 294.413C1087.17 292.922 1088.01 291.218 1088.51 289.399C1089 287.581 1089.13 285.682 1088.89 283.813C1088.65 281.944 1088.05 280.14 1087.11 278.505L1078.46 263.41ZM1059.17 240.231C1058.07 239.93 1056.88 240.081 1055.89 240.652C1054.89 241.223 1054.16 242.166 1053.86 243.274C1053.56 244.382 1053.71 245.564 1054.28 246.56C1054.85 247.557 1055.8 248.285 1056.9 248.586C1058.01 248.887 1059.2 248.735 1060.19 248.165C1061.19 247.594 1061.92 246.651 1062.22 245.543C1062.52 244.435 1062.37 243.252 1061.8 242.256C1061.22 241.26 1060.28 240.531 1059.17 240.231Z" fill="#1D8E4D" style="fill:#1D8E4D;fill:color(display-p3 0.1140 0.5583 0.3016);fill-opacity:1;"/>
<path d="M500.196 161.572C498.583 161.97 497.598 163.601 497.996 165.214C498.394 166.827 500.025 167.812 501.638 167.414L500.196 161.572ZM546.575 156.322C548.188 155.923 549.173 154.293 548.775 152.68C548.376 151.067 546.746 150.082 545.133 150.48L546.575 156.322ZM504.855 180.445C503.242 180.843 502.257 182.474 502.655 184.087C503.053 185.7 504.684 186.685 506.297 186.287L504.855 180.445ZM551.233 175.195C552.846 174.797 553.831 173.166 553.433 171.553C553.035 169.94 551.404 168.955 549.791 169.353L551.233 175.195ZM509.403 198.869C507.789 199.267 506.804 200.898 507.203 202.511C507.601 204.124 509.231 205.109 510.844 204.711L509.403 198.869ZM532.414 199.387C534.027 198.988 535.012 197.358 534.614 195.745C534.216 194.132 532.585 193.147 530.972 193.545L532.414 199.387ZM483.752 145.33L552.13 128.452L550.688 122.61L482.31 139.488L483.752 145.33ZM560.254 133.359L577.132 201.737L582.974 200.295L566.096 131.917L560.254 133.359ZM572.225 209.861L503.847 226.739L505.289 232.581L573.667 215.703L572.225 209.861ZM495.723 221.832L478.845 153.454L473.003 154.896L489.881 223.273L495.723 221.832ZM503.847 226.739C500.249 227.627 496.611 225.43 495.723 221.832L489.881 223.273C491.566 230.098 498.464 234.265 505.289 232.581L503.847 226.739ZM577.132 201.737C578.02 205.335 575.823 208.973 572.225 209.861L573.667 215.703C580.492 214.018 584.659 207.12 582.974 200.295L577.132 201.737ZM552.13 128.452C555.728 127.563 559.366 129.761 560.254 133.359L566.096 131.917C564.411 125.092 557.513 120.925 550.688 122.61L552.13 128.452ZM482.31 139.488C475.486 141.173 471.319 148.071 473.003 154.896L478.845 153.454C477.957 149.855 480.154 146.218 483.752 145.33L482.31 139.488ZM501.638 167.414L546.575 156.322L545.133 150.48L500.196 161.572L501.638 167.414ZM506.297 186.287L551.233 175.195L549.791 169.353L504.855 180.445L506.297 186.287ZM510.844 204.711L532.414 199.387L530.972 193.545L509.403 198.869L510.844 204.711Z" fill="#1D8E4D" style="fill:#1D8E4D;fill:color(display-p3 0.1140 0.5583 0.3016);fill-opacity:1;"/>
<path d="M1018.36 157.44C1019.35 156.408 1019.32 154.77 1018.28 153.781C1017.25 152.792 1015.62 152.826 1014.63 153.857L1018.36 157.44ZM986.258 183.425C985.269 184.456 985.303 186.094 986.334 187.084C987.365 188.073 989.003 188.039 989.993 187.008L986.258 183.425ZM1005.94 145.525C1006.93 144.494 1006.9 142.856 1005.87 141.867C1004.83 140.877 1003.2 140.911 1002.21 141.942L1005.94 145.525ZM973.84 171.511C972.85 172.542 972.884 174.18 973.916 175.169C974.947 176.159 976.585 176.125 977.574 175.093L973.84 171.511ZM993.819 133.895C994.808 132.863 994.774 131.225 993.743 130.236C992.712 129.246 991.074 129.28 990.084 130.312L993.819 133.895ZM976.468 144.504C975.478 145.536 975.512 147.174 976.544 148.163C977.575 149.152 979.213 149.119 980.202 148.087L976.468 144.504ZM1038.46 161.912L995.294 206.905L999.029 210.487L1042.19 165.495L1038.46 161.912ZM986.786 207.081L941.794 163.915L938.211 167.65L983.203 210.815L986.786 207.081ZM941.618 155.407L984.783 110.415L981.049 106.832L937.883 151.825L941.618 155.407ZM993.291 110.239L1038.28 153.404L1041.87 149.67L996.874 106.504L993.291 110.239ZM984.783 110.415C987.084 108.017 990.893 107.938 993.291 110.239L996.874 106.504C992.413 102.225 985.328 102.371 981.049 106.832L984.783 110.415ZM941.794 163.915C939.396 161.615 939.317 157.806 941.618 155.407L937.883 151.825C933.604 156.285 933.75 163.37 938.211 167.65L941.794 163.915ZM995.294 206.905C992.993 209.303 989.184 209.382 986.786 207.081L983.203 210.815C987.664 215.095 994.749 214.948 999.029 210.487L995.294 206.905ZM1042.19 165.495C1046.47 161.034 1046.33 153.949 1041.87 149.67L1038.28 153.404C1040.68 155.705 1040.76 159.514 1038.46 161.912L1042.19 165.495ZM1014.63 153.857L986.258 183.425L989.993 187.008L1018.36 157.44L1014.63 153.857ZM1002.21 141.942L973.84 171.511L977.574 175.093L1005.94 145.525L1002.21 141.942ZM990.084 130.312L976.468 144.504L980.202 148.087L993.819 133.895L990.084 130.312Z" fill="#1D8E4D" style="fill:#1D8E4D;fill:color(display-p3 0.1140 0.5583 0.3016);fill-opacity:1;"/>
<path d="M838.923 -37.189C838.208 -38.005 836.966 -38.0866 836.15 -37.3711C835.334 -36.6556 835.252 -35.414 835.968 -34.598L838.923 -37.189ZM855.899 -11.8648C856.614 -11.0487 857.856 -10.9672 858.672 -11.6827C859.488 -12.3981 859.569 -13.6397 858.854 -14.4558L855.899 -11.8648ZM829.375 -28.8181C828.66 -29.6342 827.418 -29.7157 826.602 -29.0003C825.786 -28.2848 825.704 -27.0432 826.42 -26.2271L829.375 -28.8181ZM846.351 -3.49395C847.066 -2.67786 848.308 -2.59631 849.124 -3.31179C849.94 -4.02727 850.021 -5.26885 849.306 -6.08494L846.351 -3.49395ZM820.055 -20.6465C819.339 -21.4626 818.098 -21.5441 817.281 -20.8287C816.465 -20.1132 816.384 -18.8716 817.099 -18.0555L820.055 -20.6465ZM826.666 -7.1436C827.382 -6.32752 828.623 -6.24596 829.439 -6.96144C830.255 -7.67693 830.337 -8.91851 829.621 -9.7346L826.666 -7.1436ZM843.405 -51.6053L873.733 -17.0134L876.688 -19.6044L846.36 -54.1963L843.405 -51.6053ZM873.326 -10.8272L838.734 19.5004L841.325 22.4557L875.917 -7.87186L873.326 -10.8272ZM832.548 19.094L802.221 -15.4979L799.265 -12.9069L829.593 21.685L832.548 19.094ZM802.627 -21.6842L837.219 -52.0117L834.628 -54.967L800.036 -24.6395L802.627 -21.6842ZM802.221 -15.4979C800.624 -17.3184 800.806 -20.0881 802.627 -21.6842L800.036 -24.6395C796.583 -21.6124 796.238 -16.3596 799.265 -12.9069L802.221 -15.4979ZM838.734 19.5004C836.914 21.0964 834.144 20.9145 832.548 19.094L829.593 21.685C832.62 25.1377 837.873 25.4827 841.325 22.4557L838.734 19.5004ZM873.733 -17.0134C875.329 -15.1929 875.147 -12.4232 873.326 -10.8272L875.917 -7.87186C879.37 -10.8989 879.715 -16.1518 876.688 -19.6044L873.733 -17.0134ZM846.36 -54.1963C843.333 -57.649 838.08 -57.9941 834.628 -54.967L837.219 -52.0117C839.039 -53.6078 841.809 -53.4258 843.405 -51.6053L846.36 -54.1963ZM835.968 -34.598L855.899 -11.8648L858.854 -14.4558L838.923 -37.189L835.968 -34.598ZM826.42 -26.2271L846.351 -3.49395L849.306 -6.08494L829.375 -28.8181L826.42 -26.2271ZM817.099 -18.0555L826.666 -7.1436L829.621 -9.7346L820.055 -20.6465L817.099 -18.0555Z" fill="#1D8E4D" style="fill:#1D8E4D;fill:color(display-p3 0.1140 0.5583 0.3016);fill-opacity:1;"/>
<path d="M772.018 380.407C772.565 381.862 774.187 382.598 775.642 382.052C777.096 381.505 777.832 379.882 777.286 378.428L772.018 380.407ZM762.058 337.907C761.511 336.452 759.889 335.716 758.434 336.263C756.98 336.809 756.244 338.432 756.79 339.886L762.058 337.907ZM789.037 374.012C789.584 375.467 791.206 376.203 792.661 375.656C794.115 375.109 794.851 373.487 794.305 372.032L789.037 374.012ZM779.077 331.511C778.53 330.057 776.908 329.32 775.453 329.867C773.999 330.414 773.263 332.036 773.809 333.491L779.077 331.511ZM805.651 367.769C806.197 369.223 807.82 369.959 809.274 369.413C810.729 368.866 811.465 367.244 810.918 365.789L805.651 367.769ZM803.609 346.339C803.062 344.884 801.44 344.148 799.985 344.695C798.531 345.241 797.795 346.864 798.341 348.318L803.609 346.339ZM758.735 397.461L735.564 335.802L730.296 337.781L753.467 399.44L758.735 397.461ZM739.231 327.718L800.89 304.547L798.911 299.279L737.252 322.45L739.231 327.718ZM808.974 308.215L832.145 369.873L837.413 367.894L814.242 306.235L808.974 308.215ZM828.477 377.957L766.818 401.128L768.798 406.396L830.457 383.225L828.477 377.957ZM832.145 369.873C833.364 373.118 831.722 376.738 828.477 377.957L830.457 383.225C836.611 380.912 839.725 374.048 837.413 367.894L832.145 369.873ZM800.89 304.547C804.135 303.328 807.754 304.97 808.974 308.215L814.242 306.235C811.929 300.081 805.065 296.966 798.911 299.279L800.89 304.547ZM735.564 335.802C734.344 332.557 735.986 328.938 739.231 327.718L737.252 322.45C731.097 324.763 727.983 331.627 730.296 337.781L735.564 335.802ZM753.467 399.44C755.78 405.595 762.644 408.709 768.798 406.396L766.818 401.128C763.573 402.348 759.954 400.706 758.735 397.461L753.467 399.44ZM777.286 378.428L762.058 337.907L756.79 339.886L772.018 380.407L777.286 378.428ZM794.305 372.032L779.077 331.511L773.809 333.491L789.037 374.012L794.305 372.032ZM810.918 365.789L803.609 346.339L798.341 348.318L805.651 367.769L810.918 365.789Z" fill="#1D8E4D" style="fill:#1D8E4D;fill:color(display-p3 0.1140 0.5583 0.3016);fill-opacity:1;"/>
<path d="M995.409 323.891C994.539 323.506 993.523 323.899 993.138 324.769C992.754 325.639 993.147 326.655 994.017 327.04L995.409 323.891ZM1018.24 337.748C1019.11 338.133 1020.13 337.739 1020.51 336.87C1020.9 336 1020.5 334.984 1019.63 334.599L1018.24 337.748ZM990.911 334.064C990.041 333.68 989.025 334.073 988.64 334.943C988.256 335.812 988.649 336.829 989.519 337.213L990.911 334.064ZM1013.74 347.922C1014.61 348.307 1015.63 347.913 1016.01 347.044C1016.4 346.174 1016 345.158 1015.13 344.773L1013.74 347.922ZM986.52 343.996C985.651 343.612 984.634 344.005 984.25 344.875C983.865 345.744 984.259 346.761 985.128 347.145L986.52 343.996ZM996.756 352.285C997.625 352.67 998.642 352.277 999.026 351.407C999.411 350.537 999.017 349.521 998.148 349.136L996.756 352.285ZM993.651 310.782L1030.51 327.077L1031.9 323.928L995.043 307.633L993.651 310.782ZM1032.47 332.143L1016.18 369.002L1019.32 370.395L1035.62 333.535L1032.47 332.143ZM1011.11 370.962L974.25 354.667L972.858 357.816L1009.72 374.111L1011.11 370.962ZM972.29 349.602L988.585 312.742L985.436 311.35L969.141 348.21L972.29 349.602ZM974.25 354.667C972.31 353.81 971.433 351.542 972.29 349.602L969.141 348.21C967.515 351.889 969.179 356.19 972.858 357.816L974.25 354.667ZM1016.18 369.002C1015.32 370.942 1013.05 371.82 1011.11 370.962L1009.72 374.111C1013.4 375.738 1017.7 374.074 1019.32 370.395L1016.18 369.002ZM1030.51 327.077C1032.45 327.935 1033.33 330.203 1032.47 332.143L1035.62 333.535C1037.25 329.856 1035.58 325.555 1031.9 323.928L1030.51 327.077ZM995.043 307.633C991.364 306.007 987.063 307.671 985.436 311.35L988.585 312.742C989.443 310.802 991.711 309.925 993.651 310.782L995.043 307.633ZM994.017 327.04L1018.24 337.748L1019.63 334.599L995.409 323.891L994.017 327.04ZM989.519 337.213L1013.74 347.922L1015.13 344.773L990.911 334.064L989.519 337.213ZM985.128 347.145L996.756 352.285L998.148 349.136L986.52 343.996L985.128 347.145Z" fill="#1D8E4D" style="fill:#1D8E4D;fill:color(display-p3 0.1140 0.5583 0.3016);fill-opacity:1;"/>
<path d="M329.527 144.026C327.921 143.563 326.243 144.488 325.779 146.094C325.315 147.7 326.241 149.378 327.847 149.842L329.527 144.026ZM372.915 162.861C374.52 163.325 376.198 162.4 376.662 160.794C377.126 159.188 376.2 157.51 374.595 157.046L372.915 162.861ZM324.058 162.955C322.452 162.491 320.775 163.417 320.311 165.023C319.847 166.628 320.772 168.306 322.378 168.77L324.058 162.955ZM367.446 181.79C369.052 182.254 370.73 181.328 371.194 179.722C371.658 178.117 370.732 176.439 369.126 175.975L367.446 181.79ZM318.72 181.433C317.114 180.969 315.436 181.895 314.972 183.501C314.509 185.106 315.434 186.784 317.04 187.248L318.72 181.433ZM338.673 193.498C340.279 193.962 341.956 193.036 342.42 191.43C342.884 189.824 341.958 188.146 340.353 187.682L338.673 193.498ZM323.328 121.396L391.906 141.207L393.586 135.392L325.008 115.581L323.328 121.396ZM396.569 149.658L376.757 218.236L382.572 219.916L402.384 151.338L396.569 149.658ZM368.306 222.899L299.728 203.087L298.048 208.902L366.626 228.714L368.306 222.899ZM295.066 194.636L314.877 126.058L309.062 124.378L289.251 192.956L295.066 194.636ZM299.728 203.087C296.107 202.041 294.02 198.257 295.066 194.636L289.251 192.956C287.277 199.789 291.216 206.928 298.048 208.902L299.728 203.087ZM376.757 218.236C375.711 221.857 371.927 223.945 368.306 222.899L366.626 228.714C373.459 230.688 380.598 226.749 382.572 219.916L376.757 218.236ZM391.906 141.207C395.528 142.253 397.615 146.037 396.569 149.658L402.384 151.338C404.358 144.505 400.419 137.366 393.586 135.392L391.906 141.207ZM325.008 115.581C318.176 113.607 311.036 117.545 309.062 124.378L314.877 126.058C315.924 122.437 319.707 120.35 323.328 121.396L325.008 115.581ZM327.847 149.842L372.915 162.861L374.595 157.046L329.527 144.026L327.847 149.842ZM322.378 168.77L367.446 181.79L369.126 175.975L324.058 162.955L322.378 168.77ZM317.04 187.248L338.673 193.498L340.353 187.682L318.72 181.433L317.04 187.248Z" fill="#1D8E4D" style="fill:#1D8E4D;fill:color(display-p3 0.1140 0.5583 0.3016);fill-opacity:1;"/>
<path d="M1355.1 232.273C1353.5 231.809 1351.82 232.734 1351.36 234.34C1350.89 235.946 1351.82 237.624 1353.42 238.088L1355.1 232.273ZM1398.49 251.108C1400.1 251.571 1401.77 250.646 1402.24 249.04C1402.7 247.434 1401.78 245.756 1400.17 245.292L1398.49 251.108ZM1349.63 251.201C1348.03 250.737 1346.35 251.663 1345.89 253.269C1345.42 254.874 1346.35 256.552 1347.95 257.016L1349.63 251.201ZM1393.02 270.036C1394.63 270.5 1396.31 269.574 1396.77 267.969C1397.23 266.363 1396.31 264.685 1394.7 264.221L1393.02 270.036ZM1344.3 269.679C1342.69 269.215 1341.01 270.141 1340.55 271.747C1340.08 273.352 1341.01 275.03 1342.62 275.494L1344.3 269.679ZM1364.25 281.744C1365.85 282.208 1367.53 281.282 1368 279.676C1368.46 278.07 1367.53 276.392 1365.93 275.929L1364.25 281.744ZM1348.9 209.642L1417.48 229.453L1419.16 223.638L1350.58 203.827L1348.9 209.642ZM1422.15 237.904L1402.33 306.482L1408.15 308.162L1427.96 239.584L1422.15 237.904ZM1393.88 311.145L1325.3 291.333L1323.62 297.148L1392.2 316.96L1393.88 311.145ZM1320.64 282.882L1340.45 214.304L1334.64 212.624L1314.83 281.202L1320.64 282.882ZM1325.3 291.333C1321.68 290.287 1319.6 286.503 1320.64 282.882L1314.83 281.202C1312.85 288.035 1316.79 295.174 1323.62 297.148L1325.3 291.333ZM1402.33 306.482C1401.29 310.103 1397.5 312.191 1393.88 311.145L1392.2 316.96C1399.04 318.934 1406.17 314.995 1408.15 308.162L1402.33 306.482ZM1417.48 229.453C1421.1 230.5 1423.19 234.283 1422.15 237.904L1427.96 239.584C1429.93 232.752 1426 225.612 1419.16 223.638L1417.48 229.453ZM1350.58 203.827C1343.75 201.853 1336.61 205.792 1334.64 212.624L1340.45 214.304C1341.5 210.683 1345.28 208.596 1348.9 209.642L1350.58 203.827ZM1353.42 238.088L1398.49 251.108L1400.17 245.292L1355.1 232.273L1353.42 238.088ZM1347.95 257.016L1393.02 270.036L1394.7 264.221L1349.63 251.201L1347.95 257.016ZM1342.62 275.494L1364.25 281.744L1365.93 275.929L1344.3 269.679L1342.62 275.494Z" fill="#1D8E4D" style="fill:#1D8E4D;fill:color(display-p3 0.1140 0.5583 0.3016);fill-opacity:1;"/>
<path d="M1138.19 154.411C1136.58 153.947 1134.91 154.872 1134.44 156.478C1133.98 158.084 1134.9 159.762 1136.51 160.226L1138.19 154.411ZM1169.35 169.714C1170.96 170.178 1172.64 169.252 1173.1 167.646C1173.56 166.04 1172.64 164.362 1171.03 163.899L1169.35 169.714ZM1134.21 168.204C1132.6 167.74 1130.92 168.666 1130.46 170.272C1129.99 171.878 1130.92 173.556 1132.53 174.019L1134.21 168.204ZM1165.37 183.507C1166.97 183.971 1168.65 183.046 1169.12 181.44C1169.58 179.834 1168.65 178.156 1167.05 177.692L1165.37 183.507ZM1130.32 181.67C1128.71 181.206 1127.03 182.131 1126.57 183.737C1126.1 185.343 1127.03 187.021 1128.64 187.485L1130.32 181.67ZM1144.4 192.039C1146.01 192.503 1147.68 191.577 1148.15 189.971C1148.61 188.365 1147.69 186.688 1146.08 186.224L1144.4 192.039ZM1133.22 139.497L1183.19 153.934L1184.87 148.119L1134.9 133.682L1133.22 139.497ZM1186.03 159.076L1171.59 209.05L1177.41 210.73L1191.84 160.756L1186.03 159.076ZM1166.45 211.887L1116.48 197.449L1114.8 203.264L1164.77 217.702L1166.45 211.887ZM1113.64 192.308L1128.08 142.333L1122.26 140.654L1107.82 190.628L1113.64 192.308ZM1116.48 197.449C1114.27 196.813 1113 194.511 1113.64 192.308L1107.82 190.628C1106.26 196.042 1109.38 201.7 1114.8 203.264L1116.48 197.449ZM1171.59 209.05C1170.96 211.253 1168.65 212.523 1166.45 211.887L1164.77 217.702C1170.18 219.266 1175.84 216.145 1177.41 210.73L1171.59 209.05ZM1183.19 153.934C1185.4 154.57 1186.67 156.872 1186.03 159.076L1191.84 160.756C1193.41 155.341 1190.29 149.683 1184.87 148.119L1183.19 153.934ZM1134.9 133.682C1129.48 132.117 1123.83 135.239 1122.26 140.654L1128.08 142.333C1128.71 140.13 1131.01 138.86 1133.22 139.497L1134.9 133.682ZM1136.51 160.226L1169.35 169.714L1171.03 163.899L1138.19 154.411L1136.51 160.226ZM1132.53 174.019L1165.37 183.507L1167.05 177.692L1134.21 168.204L1132.53 174.019ZM1128.64 187.485L1144.4 192.039L1146.08 186.224L1130.32 181.67L1128.64 187.485Z" fill="#1D8E4D" style="fill:#1D8E4D;fill:color(display-p3 0.1140 0.5583 0.3016);fill-opacity:1;"/>
<path d="M178.943 0.755019C177.148 0.236495 175.273 1.27117 174.754 3.06603C174.236 4.8609 175.27 6.73627 177.065 7.25479L178.943 0.755019ZM215.432 18.3388C217.227 18.8573 219.102 17.8226 219.621 16.0278C220.139 14.2329 219.105 12.3575 217.31 11.839L215.432 18.3388ZM174.288 16.8691C172.493 16.3506 170.617 17.3853 170.099 19.1801C169.58 20.975 170.615 22.8504 172.41 23.3689L174.288 16.8691ZM210.777 34.4529C212.572 34.9714 214.447 33.9367 214.966 32.1419C215.484 30.347 214.449 28.4716 212.655 27.9531L210.777 34.4529ZM169.743 32.5996C167.948 32.0811 166.073 33.1158 165.554 34.9106C165.036 36.7055 166.071 38.5808 167.865 39.0994L169.743 32.5996ZM186.282 44.4197C188.076 44.9382 189.952 43.9035 190.47 42.1087C190.989 40.3138 189.954 38.4384 188.159 37.9199L186.282 44.4197ZM173.219 -16.9615L231.6 -0.0956032L233.478 -6.59537L175.097 -23.4613L173.219 -16.9615ZM235.018 6.10036L218.152 64.4815L224.652 66.3592L241.518 7.9781L235.018 6.10036ZM211.956 67.8999L153.575 51.034L151.698 57.5337L210.079 74.3997L211.956 67.8999ZM150.157 44.838L167.023 -13.5431L160.523 -15.4209L143.657 42.9603L150.157 44.838ZM153.575 51.034C150.92 50.267 149.39 47.4929 150.157 44.838L143.657 42.9603C141.853 49.2049 145.453 55.7297 151.698 57.5337L153.575 51.034ZM218.152 64.4815C217.385 67.1364 214.611 68.6669 211.956 67.8999L210.079 74.3997C216.323 76.2037 222.848 72.6039 224.652 66.3592L218.152 64.4815ZM231.6 -0.0956032C234.255 0.671392 235.785 3.44542 235.018 6.10036L241.518 7.9781C243.322 1.73344 239.722 -4.79133 233.478 -6.59537L231.6 -0.0956032ZM175.097 -23.4613C168.852 -25.2654 162.327 -21.6655 160.523 -15.4209L167.023 -13.5431C167.79 -16.1981 170.564 -17.7285 173.219 -16.9615L175.097 -23.4613ZM177.065 7.25479L215.432 18.3388L217.31 11.839L178.943 0.755019L177.065 7.25479ZM172.41 23.3689L210.777 34.4529L212.655 27.9531L174.288 16.8691L172.41 23.3689ZM167.865 39.0994L186.282 44.4197L188.159 37.9199L169.743 32.5996L167.865 39.0994Z" fill="#1D8E4D" style="fill:#1D8E4D;fill:color(display-p3 0.1140 0.5583 0.3016);fill-opacity:1;"/>
<path d="M72.9981 258.391C70.883 257.13 68.1466 257.823 66.886 259.938C65.6254 262.053 66.3181 264.789 68.4331 266.05L72.9981 258.391ZM106.703 288.859C108.818 290.12 111.555 289.427 112.815 287.312C114.076 285.197 113.383 282.46 111.268 281.2L106.703 288.859ZM63.4182 274.464C61.3032 273.204 58.5667 273.896 57.3062 276.011C56.0456 278.126 56.7383 280.863 58.8533 282.123L63.4182 274.464ZM97.1232 304.932C99.2382 306.193 101.975 305.5 103.235 303.385C104.496 301.27 103.803 298.534 101.688 297.273L97.1232 304.932ZM54.0665 290.155C51.9515 288.894 49.215 289.587 47.9544 291.702C46.6939 293.817 47.3865 296.553 49.5016 297.814L54.0665 290.155ZM67.8711 308.762C69.9861 310.023 72.7226 309.33 73.9832 307.215C75.2438 305.1 74.5511 302.364 72.436 301.103L67.8711 308.762ZM71.1292 238.829L129.363 273.537L133.928 265.878L75.6942 231.17L71.1292 238.829ZM131.062 280.251L96.3548 338.485L104.014 343.05L138.721 284.816L131.062 280.251ZM89.6403 340.184L31.4069 305.477L26.842 313.136L85.0753 347.844L89.6403 340.184ZM29.7073 298.762L64.4147 240.529L56.7555 235.964L22.0481 294.198L29.7073 298.762ZM31.4069 305.477C29.0834 304.092 28.3225 301.086 29.7073 298.762L22.0481 294.198C18.1421 300.751 20.2884 309.23 26.842 313.136L31.4069 305.477ZM96.3548 338.485C94.97 340.808 91.9638 341.569 89.6403 340.184L85.0753 347.844C91.6289 351.75 100.108 349.603 104.014 343.05L96.3548 338.485ZM129.363 273.537C131.686 274.922 132.447 277.928 131.062 280.251L138.721 284.816C142.627 278.263 140.481 269.784 133.928 265.878L129.363 273.537ZM75.6942 231.17C69.1406 227.264 60.6614 229.411 56.7555 235.964L64.4147 240.529C65.7995 238.206 68.8057 237.445 71.1292 238.829L75.6942 231.17ZM68.4331 266.05L106.703 288.859L111.268 281.2L72.9981 258.391L68.4331 266.05ZM58.8533 282.123L97.1232 304.932L101.688 297.273L63.4182 274.464L58.8533 282.123ZM49.5016 297.814L67.8711 308.762L72.436 301.103L54.0665 290.155L49.5016 297.814Z" fill="#1D8E4D" style="fill:#1D8E4D;fill:color(display-p3 0.1140 0.5583 0.3016);fill-opacity:1;"/>
<path d="M915.939 221.889L904.62 224.468L900.25 231.416L889.827 224.861C885.832 222.349 881.11 224.228 878.508 227.44L853.184 259.999C850.583 263.211 850.691 268.127 855.763 271.317L911.353 306.277C916.425 309.467 920.903 307.434 922.671 303.698L941.047 266.769C942.815 263.033 942.151 257.767 938.468 255.451L928.045 248.896L932.415 241.947L929.836 230.629L915.939 221.889ZM911.569 228.837L925.466 237.577L921.096 244.526L907.199 235.786L911.569 228.837ZM904.118 248.394L911.067 252.764L904.512 263.187L914.935 269.742L910.565 276.691L900.142 270.136L893.587 280.559L886.639 276.189L893.193 265.766L882.77 259.211L887.14 252.262L897.563 258.817L904.118 248.394Z" fill="#1D8E4D" style="fill:#1D8E4D;fill:color(display-p3 0.1140 0.5583 0.3016);fill-opacity:1;"/>
<path d="M758.501 170.887C783.066 170.887 805.617 170.664 828.148 171.036C835.199 171.148 836.224 176.273 835.087 182.404C829.062 214.959 813.45 242.036 789.427 264.696C773.216 279.724 753.878 290.981 732.799 297.661C729.327 298.964 725.516 299.063 721.981 297.94C691.329 288.493 664.5 269.506 645.411 243.75C626.322 217.994 615.972 186.817 615.87 154.768C615.87 143.587 616 132.406 615.87 121.225C615.87 113.92 618.593 110.529 626.352 110.603C653.995 110.827 681.63 110.827 709.26 110.603C715.154 110.603 717.374 112.28 717.411 118.504C717.561 137.512 705.474 150.967 686.337 152.047C679.846 152.401 673.281 152.327 666.79 152.234C660.728 152.234 659.739 155.029 662.164 159.818C663.731 163.231 666.276 166.104 669.476 168.074C672.676 170.045 676.388 171.023 680.145 170.887C688.836 170.887 697.528 170.887 706.257 170.887C732.78 170.589 749.791 182.832 757.569 207.971C758.017 209.443 758.371 210.971 758.93 212.406C760.796 217.251 764.526 218.667 769.394 217.996C774.878 217.251 776.613 213.375 776.407 208.679C775.997 198.747 771.558 190.193 766.279 182.05C764.209 178.826 761.989 175.863 758.501 170.887Z" fill="#1D8E4D" style="fill:#1D8E4D;fill:color(display-p3 0.1140 0.5583 0.3016);fill-opacity:1;"/>
<path d="M736.324 96.8319C736.324 82.2594 736.473 67.6683 736.324 53.0957C736.212 44.9709 740.055 41.9148 747.814 42.6602C754.603 43.3497 761.411 43.8715 768.201 44.5237C774.99 45.1759 778.011 49.0334 777.993 55.7047C777.993 84.2782 777.993 112.814 777.993 141.313C777.993 149.028 774.393 152.644 766.428 152.178C759.938 151.786 753.372 151.898 746.881 152.178C739.42 152.42 736.175 148.972 736.268 141.556C736.436 126.648 736.268 111.74 736.268 96.8319H736.324Z" fill="#1D8E4D" style="fill:#1D8E4D;fill:color(display-p3 0.1140 0.5583 0.3016);fill-opacity:1;"/>
<path d="M837.977 105.367C837.977 116.212 837.977 127.077 837.977 137.941C837.977 150.538 836.467 152.029 824.25 152.047C818.039 152.047 811.827 152.047 805.598 152.047C799.368 152.047 796.589 149.401 796.626 142.991C796.775 115.659 796.775 88.3282 796.626 60.997C796.626 52.9281 800.226 50.3751 807.668 51.8845L808.582 52.0897C837.94 57.941 837.94 57.941 837.94 87.6637V105.367H837.977Z" fill="#1D8E4D" style="fill:#1D8E4D;fill:color(display-p3 0.1140 0.5583 0.3016);fill-opacity:1;"/>
<path d="M717.206 67.687C717.504 94.4095 719.071 91.5398 693.238 91.6888C676.228 91.6888 676.116 91.5768 675.929 74.7122C675.835 73.4717 675.835 72.2258 675.929 70.9852C676.992 62.8976 672.012 52.1453 679.454 47.2443C688.072 41.542 699.748 42.8092 710.286 42.8465C714.669 42.8465 717.131 45.5671 717.187 50.0023C717.262 55.9095 717.206 61.7984 717.206 67.687Z" fill="#1D8E4D" style="fill:#1D8E4D;fill:color(display-p3 0.1140 0.5583 0.3016);fill-opacity:1;"/>
<path d="M636.574 91.8567C615.012 91.8567 615.273 91.8566 615.758 70.1656C615.907 63.047 618.686 59.3387 625.364 57.6616C632.041 55.9844 638.998 53.5804 645.881 51.9032C653.155 50.0397 657.278 52.9655 657.259 60.8108C657.259 66.9976 657.259 73.1844 657.259 79.4457C657.128 90.2353 655.393 91.8938 644.948 91.9497L636.574 91.8567Z" fill="#1D8E4D" style="fill:#1D8E4D;fill:color(display-p3 0.1140 0.5583 0.3016);fill-opacity:1;"/>
<rect opacity="0.5" x="0.452148" y="0.395508" width="1452.7" height="340.476" fill="#1A492E" style="fill:#1A492E;fill:color(display-p3 0.1006 0.2875 0.1795);fill-opacity:1;"/>
</g>
<defs>
<clipPath id="clip0_689_1046">
<rect width="1452.7" height="340.476" fill="white" style="fill:white;fill-opacity:1;" transform="translate(0.452148 0.395508)"/>
</clipPath>
</defs>
</svg>
