<svg width="54" height="54" viewBox="0 0 54 54" fill="none" xmlns="http://www.w3.org/2000/svg">
<path d="M31.2109 35.4745C31.2237 36.0958 31.1107 36.7133 30.8788 37.2898C30.6469 37.8664 30.3009 38.3901 29.8614 38.8295C29.422 39.2689 28.8983 39.615 28.3217 39.8469C27.7452 40.0788 27.1277 40.1918 26.5064 40.179C25.885 40.1922 25.2674 40.0795 24.6908 39.8477C24.1141 39.6159 23.5903 39.2699 23.1509 38.8303C22.7115 38.3908 22.3656 37.8669 22.134 37.2902C21.9024 36.7135 21.7899 36.0958 21.8033 35.4745M36.3249 35.4745C36.7073 35.4959 37.0888 35.419 37.433 35.2512C37.7772 35.0834 38.0727 34.8302 38.2913 34.5157C38.5099 34.2013 38.6443 33.8361 38.6817 33.455C38.7191 33.0739 38.6582 32.6895 38.5049 32.3386C37.9859 30.7699 35.9169 28.8884 35.9169 27.0371C35.9169 22.928 35.8739 18.8971 33.8927 16.5467C31.8588 14.1338 29.6621 13.2693 26.5064 13.2695C23.3512 13.2698 21.1548 14.134 19.1215 16.5467C17.1406 18.8972 17.0987 22.928 17.0987 27.0371C17.0987 28.8884 15.1234 30.581 14.6044 32.2434C14.2915 33.2484 14.1185 35.4745 16.7382 35.4745H36.3249Z" stroke="white" style="stroke:white;stroke-opacity:1;" stroke-width="2" stroke-linecap="round" stroke-linejoin="round"/>
</svg>
