<svg width="18" height="16" viewBox="0 0 18 16" fill="none" xmlns="http://www.w3.org/2000/svg">
<path d="M7.07946 13.7208L7.07923 13.7207C5.81487 12.7888 4.16678 11.4455 2.83957 9.92979C1.49728 8.39684 0.558674 6.77222 0.558674 5.27025C0.558674 2.84315 1.66933 1.291 3.11268 0.751111C4.56143 0.209205 6.53252 0.6171 8.38864 2.51264L8.73544 2.8668L9.08223 2.51264C10.9384 0.6171 12.9094 0.209205 14.3582 0.751111C15.8016 1.291 16.9122 2.84315 16.9122 5.27025C16.9122 6.77321 15.9736 8.39783 14.6313 9.93048C13.3041 11.446 11.6561 12.7888 10.3916 13.7207L10.3914 13.7208C9.47764 14.3951 9.17712 14.5923 8.73544 14.5923C8.29375 14.5923 7.99323 14.3951 7.07946 13.7208Z" stroke="white" style="stroke:white;stroke-opacity:1;" stroke-width="0.970741"/>
</svg>
