<svg width="13" height="17" viewBox="0 0 13 17" fill="none" xmlns="http://www.w3.org/2000/svg">
<path d="M4.33278 9.69239C3.95995 10.2239 3.34258 10.5713 2.64406 10.5713C1.5056 10.5713 0.582703 9.64842 0.582703 8.50997C0.582703 7.37152 1.5056 6.44862 2.64406 6.44862C3.34255 6.44862 3.9599 6.79603 4.33273 7.32749M4.33278 9.69239C4.56759 9.35765 4.70541 8.9499 4.70541 8.50997C4.70541 8.07001 4.56758 7.66224 4.33273 7.32749M4.33278 9.69239L8.67354 12.7318M8.67354 12.7318C9.04638 12.2004 9.66373 11.8529 10.3622 11.8529C11.5007 11.8529 12.4236 12.7758 12.4236 13.9143C12.4236 15.0528 11.5007 15.9757 10.3622 15.9757C9.22377 15.9757 8.30087 15.0528 8.30087 13.9143C8.30087 13.4743 8.43871 13.0666 8.67354 12.7318ZM4.33273 7.32749L8.67354 4.28802M8.67354 4.28802C9.04638 4.81948 9.66373 5.1669 10.3622 5.1669C11.5007 5.1669 12.4236 4.244 12.4236 3.10554C12.4236 1.96709 11.5007 1.04419 10.3622 1.04419C9.22377 1.04419 8.30087 1.96709 8.30087 3.10554C8.30087 3.5455 8.43871 3.95327 8.67354 4.28802Z" stroke="white" style="stroke:white;stroke-opacity:1;" stroke-width="0.970741"/>
</svg>
